<?xml version="1.0" encoding="UTF-8"?>
<svg width="65px" height="65px" viewBox="0 0 65 65" version="1.1" xmlns="http://www.w3.org/2000/svg" xmlns:xlink="http://www.w3.org/1999/xlink">
    <!-- Generator: Sketch 41 (35326) - http://www.bohemiancoding.com/sketch -->
    <title>bluemix-logo-white</title>
    <desc>Created with Sketch.</desc>
    <defs></defs>
    <g id="Docs-Home" stroke="none" stroke-width="1" fill="none" fill-rule="evenodd">
        <g id="docs-section-home" transform="translate(-418.000000, -56.000000)" fill="#FFFFFF">
            <g id="Main-Content" transform="translate(396.000000, 32.000000)">
                <g id="Bluemix-Logo-White" transform="translate(22.000000, 24.000000)">
                    <path d="M26.6691176,16.5367647 L9.08088235,16.5367647 L0,32.3088235 L9.08088235,48.0808824 L26.5735294,48.0808824 L26.5735294,48.0808824 C26.3823529,47.8897059 26.0955882,47.7941176 25.9044118,47.6029412 C21.2205882,44.1617647 18.2573529,38.6176471 18.2573529,32.3088235 C18.2573529,26.0955882 21.3161765,20.4558824 25.9044118,17.0147059 C26.1911765,16.8235294 26.3823529,16.6323529 26.6691176,16.5367647 L26.6691176,16.5367647 Z" id="Shape" style="mix-blend-mode: soft-light;"></path>
                    <path d="M56.3014706,33.6470588 L56.3014706,33.6470588 C56.3014706,33.9338235 56.3014706,34.2205882 56.2058824,34.5073529 C55.1544118,43.9705882 47.125,51.4264706 37.2794118,51.4264706 C34.6029412,51.4264706 32.0220588,50.8529412 29.7279412,49.8970588 C29.4411765,49.8014706 29.25,49.7058824 28.9632353,49.5147059 L37.6617647,64.6176471 L55.9191176,64.6176471 L65,48.8455882 L56.3014706,33.6470588 L56.3014706,33.6470588 Z" id="Shape" style="mix-blend-mode: soft-light;"></path>
                    <rect id="Rectangle-path" style="mix-blend-mode: soft-light;" x="29.0588235" y="49.4191176" width="0.1" height="0.669117647"></rect>
                    <path d="M37.2794118,13.2867647 C47.0294118,13.2867647 55.1544118,20.6470588 56.2058824,30.1102941 C56.2058824,30.3970588 56.3014706,30.6838235 56.3014706,30.875 L56.3014706,30.875 L65,15.7720588 L55.9191176,0 L37.7573529,0 L28.9632353,15.1985294 C29.25,15.1029412 29.5367647,14.9117647 29.7279412,14.8161765 C32.1176471,13.7647059 34.6029412,13.2867647 37.2794118,13.2867647 L37.2794118,13.2867647 Z" id="Shape" style="mix-blend-mode: soft-light;"></path>
                    <polygon id="Shape" style="mix-blend-mode: soft-light;" points="37.6617647 32.9779412 37.6617647 33.0735294 37.6617647 33.0735294"></polygon>
                    <path d="M36.4191176,32.3088235 L36.4191176,32.3088235 L36.4191176,32.3088235 L27.8161765,17.3970588 L27.8161765,17.3970588 C27.7205882,17.3970588 27.3382353,17.6838235 27.3382353,17.6838235 L27.3382353,46.9338235 C27.5294118,47.0294118 27.625,47.125 27.8161765,47.2205882 L27.8161765,47.2205882 L36.4191176,32.3088235 L36.4191176,32.3088235 Z" id="Shape" style="mix-blend-mode: soft-light;"></path>
                    <path d="M44.2573529,48.6544118 C46.3602941,47.7941176 48.2720588,46.4558824 49.8970588,44.8308824 C51.5220588,43.2058824 52.7647059,41.2941176 53.7205882,39.1911765 C54.1985294,37.9485294 54.5808824,36.7058824 54.8676471,35.3676471 L31.2573529,48.9411765 C33.1691176,49.6102941 35.2720588,49.9926471 37.2794118,49.9926471 C39.6691176,49.9926471 42.0588235,49.5147059 44.2573529,48.6544118 L44.2573529,48.6544118 Z" id="Shape" style="mix-blend-mode: soft-light;"></path>
                    <path d="M55.0588235,33.0735294 L55.0588235,33.0735294 L37.7573529,33.0735294 L37.7573529,33.0735294 L29.1544118,48.0808824 L29.1544118,48.0808824 C29.3455882,48.1764706 29.5367647,48.2720588 29.6323529,48.3676471 L54.9632353,33.7426471 C54.9632353,33.4558824 54.9632353,33.2647059 55.0588235,33.0735294 L55.0588235,33.0735294 Z" id="Shape" style="mix-blend-mode: soft-light;"></path>
                    <path d="M29.0588235,16.6323529 L29.0588235,16.6323529 L37.6617647,31.5441176 L54.9632353,31.5441176 L54.9632353,30.9705882 L29.6323529,16.3455882 C29.4411765,16.4411765 29.25,16.5367647 29.0588235,16.6323529 L29.0588235,16.6323529 Z" id="Shape" style="mix-blend-mode: soft-light;"></path>
                    <path d="M49.8014706,19.7867647 C48.1764706,18.1617647 46.2647059,16.9191176 44.1617647,15.9632353 C41.9632353,15.0073529 39.6691176,14.5294118 37.2794118,14.5294118 C35.1764706,14.5294118 33.1691176,14.9117647 31.2573529,15.5808824 L54.7720588,29.1544118 C54.5808824,27.8161765 54.1985294,26.5735294 53.625,25.3308824 C52.7647059,23.3235294 51.4264706,21.4117647 49.8014706,19.7867647 L49.8014706,19.7867647 Z" id="Shape" style="mix-blend-mode: soft-light;"></path>
                    <path d="M19.5955882,32.3088235 C19.5955882,34.6985294 20.0735294,36.9926471 21.0294118,39.1911765 C21.8897059,41.2941176 23.2279412,43.2058824 24.8529412,44.8308824 C25.2352941,45.2132353 25.6176471,45.5 26,45.8823529 L26,18.8308824 C25.6176471,19.1176471 25.2352941,19.5 24.8529412,19.8823529 C23.2279412,21.5073529 21.9852941,23.4191176 21.0294118,25.5220588 C20.0735294,27.625 19.5955882,29.9191176 19.5955882,32.3088235 L19.5955882,32.3088235 Z" id="Shape" style="mix-blend-mode: soft-light;"></path>
                </g>
            </g>
        </g>
    </g>
</svg>