<?xml version="1.0" encoding="UTF-8"?>
<svg width="552px" height="320px" viewBox="0 0 552 320" version="1.1" xmlns="http://www.w3.org/2000/svg" xmlns:xlink="http://www.w3.org/1999/xlink">
    <!-- Generator: Sketch 41 (35326) - http://www.bohemiancoding.com/sketch -->
    <title>docs-venn</title>
    <desc>Created with Sketch.</desc>
    <defs>
        <circle id="path-1" cx="160" cy="160" r="160"></circle>
        <mask id="mask-2" maskContentUnits="userSpaceOnUse" maskUnits="objectBoundingBox" x="0" y="0" width="320" height="320" fill="white">
            <use xlink:href="#path-1"></use>
        </mask>
        <circle id="path-3" cx="392" cy="160" r="160"></circle>
        <mask id="mask-4" maskContentUnits="userSpaceOnUse" maskUnits="objectBoundingBox" x="0" y="0" width="320" height="320" fill="white">
            <use xlink:href="#path-3"></use>
        </mask>
        <path d="M276.000013,270.20028 C303.267269,241.50713 320,202.707634 320,160 C320,117.292366 303.267269,78.4928704 276.000013,49.7997203 C248.732737,78.4928576 232,117.292359 232,160 C232,202.707641 248.732737,241.507142 276,270.200294 Z" id="path-5"></path>
        <mask id="mask-6" maskContentUnits="userSpaceOnUse" maskUnits="objectBoundingBox" x="0" y="0" width="88" height="220.400574" fill="white">
            <use xlink:href="#path-5"></use>
        </mask>
    </defs>
    <g id="Page-1" stroke="none" stroke-width="1" fill="none" fill-rule="evenodd">
        <g id="docs-venn">
            <use id="Oval" stroke="#3D70B2" mask="url(#mask-2)" stroke-width="4" fill="#5AAAFA" xlink:href="#path-1"></use>
            <use id="Oval-Copy" stroke="#3D70B2" mask="url(#mask-4)" stroke-width="4" fill="#7CC7FF" xlink:href="#path-3"></use>
            <use id="Combined-Shape" stroke="#3D70B2" mask="url(#mask-6)" stroke-width="4" fill="#734098" xlink:href="#path-5"></use>
            <path d="M47.12,148.688 L47.12,158 L49.632,158 L49.632,148.688 L53.056,148.688 L53.056,146.576 L43.696,146.576 L43.696,148.688 L47.12,148.688 Z M57.368,146.576 L57.368,158 L59.88,158 L59.88,153.072 L64.504,153.072 L64.504,158 L67.016,158 L67.016,146.576 L64.504,146.576 L64.504,150.96 L59.88,150.96 L59.88,146.576 L57.368,146.576 Z M72.224,146.576 L72.224,158 L74.736,158 L74.736,146.576 L72.224,146.576 Z M79.944,146.576 L79.944,158 L82.296,158 L82.296,150.352 L82.328,150.352 L87.08,158 L89.592,158 L89.592,146.576 L87.24,146.576 L87.24,154.24 L87.208,154.24 L82.44,146.576 L79.944,146.576 Z M103.056,156.704 L103.312,158 L104.912,158 L104.912,151.824 L100.112,151.824 L100.112,153.696 L102.64,153.696 C102.565333,154.496004 102.301336,155.106665 101.848,155.528 C101.394664,155.949335 100.752004,156.16 99.92,156.16 C99.3546638,156.16 98.8746686,156.050668 98.48,155.832 C98.0853314,155.613332 97.7653346,155.322668 97.52,154.96 C97.2746654,154.597332 97.0960006,154.189336 96.984,153.736 C96.8719994,153.282664 96.816,152.816002 96.816,152.336 C96.816,151.834664 96.8719994,151.349336 96.984,150.88 C97.0960006,150.410664 97.2746654,149.992002 97.52,149.624 C97.7653346,149.255998 98.0853314,148.962668 98.48,148.744 C98.8746686,148.525332 99.3546638,148.416 99.92,148.416 C100.528003,148.416 101.045331,148.575998 101.472,148.896 C101.898669,149.216002 102.186666,149.695997 102.336,150.336 L104.736,150.336 C104.672,149.68533 104.496001,149.109336 104.208,148.608 C103.919999,148.106664 103.554669,147.685335 103.112,147.344 C102.669331,147.002665 102.173336,146.744001 101.624,146.568 C101.074664,146.391999 100.50667,146.304 99.92,146.304 C99.045329,146.304 98.2586702,146.458665 97.56,146.768 C96.8613298,147.077335 96.2720024,147.503997 95.792,148.048 C95.3119976,148.592003 94.9440013,149.22933 94.688,149.96 C94.4319987,150.69067 94.304,151.482662 94.304,152.336 C94.304,153.168004 94.4319987,153.943996 94.688,154.664 C94.9440013,155.384004 95.3119976,156.010664 95.792,156.544 C96.2720024,157.077336 96.8613298,157.495998 97.56,157.8 C98.2586702,158.104002 99.045329,158.256 99.92,158.256 C100.474669,158.256 101.023997,158.141334 101.568,157.912 C102.112003,157.682666 102.607998,157.280003 103.056,156.704 Z M111.656,154.208 L109.224,154.208 C109.213333,154.912004 109.341332,155.519997 109.608,156.032 C109.874668,156.544003 110.234664,156.965332 110.688,157.296 C111.141336,157.626668 111.663997,157.869333 112.256,158.024 C112.848003,158.178667 113.458664,158.256 114.088,158.256 C114.866671,158.256 115.551997,158.165334 116.144,157.984 C116.736003,157.802666 117.231998,157.549335 117.632,157.224 C118.032002,156.898665 118.333332,156.512002 118.536,156.064 C118.738668,155.615998 118.84,155.130669 118.84,154.608 C118.84,153.967997 118.704001,153.442669 118.432,153.032 C118.159999,152.621331 117.837335,152.293335 117.464,152.048 C117.090665,151.802665 116.714669,151.624001 116.336,151.512 C115.957331,151.399999 115.661334,151.322667 115.448,151.28 C114.73333,151.098666 114.154669,150.949334 113.712,150.832 C113.269331,150.714666 112.922668,150.597334 112.672,150.48 C112.421332,150.362666 112.253334,150.234667 112.168,150.096 C112.082666,149.957333 112.04,149.776001 112.04,149.552 C112.04,149.306665 112.093333,149.104001 112.2,148.944 C112.306667,148.783999 112.442666,148.650667 112.608,148.544 C112.773334,148.437333 112.957332,148.362667 113.16,148.32 C113.362668,148.277333 113.565332,148.256 113.768,148.256 C114.077335,148.256 114.362665,148.282666 114.624,148.336 C114.885335,148.389334 115.117332,148.479999 115.32,148.608 C115.522668,148.736001 115.685333,148.911999 115.808,149.136 C115.930667,149.360001 116.002667,149.642665 116.024,149.984 L118.456,149.984 C118.456,149.322663 118.330668,148.760002 118.08,148.296 C117.829332,147.831998 117.490669,147.450668 117.064,147.152 C116.637331,146.853332 116.149336,146.637334 115.6,146.504 C115.050664,146.370666 114.477336,146.304 113.88,146.304 C113.367997,146.304 112.856003,146.373333 112.344,146.512 C111.831997,146.650667 111.373335,146.863999 110.968,147.152 C110.562665,147.440001 110.234668,147.799998 109.984,148.232 C109.733332,148.664002 109.608,149.17333 109.608,149.76 C109.608,150.282669 109.706666,150.727998 109.904,151.096 C110.101334,151.464002 110.359998,151.770665 110.68,152.016 C111.000002,152.261335 111.362665,152.461333 111.768,152.616 C112.173335,152.770667 112.589331,152.901333 113.016,153.008 C113.432002,153.125334 113.842665,153.232 114.248,153.328 C114.653335,153.424 115.015998,153.535999 115.336,153.664 C115.656002,153.792001 115.914666,153.951999 116.112,154.144 C116.309334,154.336001 116.408,154.586665 116.408,154.896 C116.408,155.184001 116.333334,155.421332 116.184,155.608 C116.034666,155.794668 115.848001,155.941333 115.624,156.048 C115.399999,156.154667 115.160001,156.226666 114.904,156.264 C114.647999,156.301334 114.408001,156.32 114.184,156.32 C113.853332,156.32 113.533335,156.28 113.224,156.2 C112.914665,156.12 112.645334,155.997334 112.416,155.832 C112.186666,155.666666 112.002667,155.450668 111.864,155.184 C111.725333,154.917332 111.656,154.592002 111.656,154.208 Z M130.776,146.576 L130.776,158 L133.288,158 L133.288,146.576 L130.776,146.576 Z M153.56,150.416 L155.992,150.416 C155.917333,149.754663 155.736001,149.168003 155.448,148.656 C155.159999,148.143997 154.794669,147.714668 154.352,147.368 C153.909331,147.021332 153.408003,146.757334 152.848,146.576 C152.287997,146.394666 151.693336,146.304 151.064,146.304 C150.189329,146.304 149.40267,146.458665 148.704,146.768 C148.00533,147.077335 147.416002,147.503997 146.936,148.048 C146.455998,148.592003 146.088001,149.22933 145.832,149.96 C145.575999,150.69067 145.448,151.482662 145.448,152.336 C145.448,153.168004 145.575999,153.943996 145.832,154.664 C146.088001,155.384004 146.455998,156.010664 146.936,156.544 C147.416002,157.077336 148.00533,157.495998 148.704,157.8 C149.40267,158.104002 150.189329,158.256 151.064,158.256 C151.768004,158.256 152.41333,158.149334 153,157.936 C153.58667,157.722666 154.098664,157.413335 154.536,157.008 C154.973336,156.602665 155.325332,156.112003 155.592,155.536 C155.858668,154.959997 156.024,154.31467 156.088,153.6 L153.656,153.6 C153.56,154.368004 153.296002,154.986664 152.864,155.456 C152.431998,155.925336 151.832004,156.16 151.064,156.16 C150.498664,156.16 150.018669,156.050668 149.624,155.832 C149.229331,155.613332 148.909335,155.322668 148.664,154.96 C148.418665,154.597332 148.240001,154.189336 148.128,153.736 C148.015999,153.282664 147.96,152.816002 147.96,152.336 C147.96,151.834664 148.015999,151.349336 148.128,150.88 C148.240001,150.410664 148.418665,149.992002 148.664,149.624 C148.909335,149.255998 149.229331,148.962668 149.624,148.744 C150.018669,148.525332 150.498664,148.416 151.064,148.416 C151.373335,148.416 151.669332,148.466666 151.952,148.568 C152.234668,148.669334 152.487999,148.810666 152.712,148.992 C152.936001,149.173334 153.122666,149.383999 153.272,149.624 C153.421334,149.864001 153.517333,150.127999 153.56,150.416 Z M163.68,153.584 L165.168,149.392 L165.2,149.392 L166.64,153.584 L163.68,153.584 Z M163.92,146.576 L159.6,158 L162.128,158 L163.024,155.456 L167.296,155.456 L168.16,158 L170.768,158 L166.496,146.576 L163.92,146.576 Z M174.76,146.576 L174.76,158 L177.112,158 L177.112,150.352 L177.144,150.352 L181.896,158 L184.408,158 L184.408,146.576 L182.056,146.576 L182.056,154.24 L182.024,154.24 L177.256,146.576 L174.76,146.576 Z M43.528,171.888 L43.528,164.688 L45.32,164.688 C45.9386698,164.688 46.4586646,164.775999 46.88,164.952 C47.3013354,165.128001 47.6399987,165.381332 47.896,165.712 C48.1520013,166.042668 48.3359994,166.439998 48.448,166.904 C48.5600006,167.368002 48.616,167.887997 48.616,168.464 C48.616,169.093336 48.5360008,169.626664 48.376,170.064 C48.2159992,170.501336 48.002668,170.855999 47.736,171.128 C47.469332,171.400001 47.165335,171.594666 46.824,171.712 C46.482665,171.829334 46.1306685,171.888 45.768,171.888 L43.528,171.888 Z M41.016,162.576 L41.016,174 L45.944,174 C46.818671,174 47.5786634,173.853335 48.224,173.56 C48.8693366,173.266665 49.4079978,172.864003 49.84,172.352 C50.2720022,171.839997 50.5946656,171.232004 50.808,170.528 C51.0213344,169.823996 51.128,169.056004 51.128,168.224 C51.128,167.274662 50.9973346,166.448004 50.736,165.744 C50.4746654,165.039996 50.1120023,164.453336 49.648,163.984 C49.1839977,163.514664 48.6346698,163.162668 48,162.928 C47.3653302,162.693332 46.6800037,162.576 45.944,162.576 L41.016,162.576 Z M57.888,168.336 C57.888,167.834664 57.9439994,167.349336 58.056,166.88 C58.1680006,166.410664 58.3466654,165.992002 58.592,165.624 C58.8373346,165.255998 59.1573314,164.962668 59.552,164.744 C59.9466686,164.525332 60.4266638,164.416 60.992,164.416 C61.5573362,164.416 62.0373314,164.525332 62.432,164.744 C62.8266686,164.962668 63.1466654,165.255998 63.392,165.624 C63.6373346,165.992002 63.8159994,166.410664 63.928,166.88 C64.0400006,167.349336 64.096,167.834664 64.096,168.336 C64.096,168.816002 64.0400006,169.282664 63.928,169.736 C63.8159994,170.189336 63.6373346,170.597332 63.392,170.96 C63.1466654,171.322668 62.8266686,171.613332 62.432,171.832 C62.0373314,172.050668 61.5573362,172.16 60.992,172.16 C60.4266638,172.16 59.9466686,172.050668 59.552,171.832 C59.1573314,171.613332 58.8373346,171.322668 58.592,170.96 C58.3466654,170.597332 58.1680006,170.189336 58.056,169.736 C57.9439994,169.282664 57.888,168.816002 57.888,168.336 Z M55.376,168.336 C55.376,169.168004 55.5039987,169.943996 55.76,170.664 C56.0160013,171.384004 56.3839976,172.010664 56.864,172.544 C57.3440024,173.077336 57.9333298,173.495998 58.632,173.8 C59.3306702,174.104002 60.117329,174.256 60.992,174.256 C61.8773378,174.256 62.6666632,174.104002 63.36,173.8 C64.0533368,173.495998 64.6399976,173.077336 65.12,172.544 C65.6000024,172.010664 65.9679987,171.384004 66.224,170.664 C66.4800013,169.943996 66.608,169.168004 66.608,168.336 C66.608,167.482662 66.4800013,166.69067 66.224,165.96 C65.9679987,165.22933 65.6000024,164.592003 65.12,164.048 C64.6399976,163.503997 64.0533368,163.077335 63.36,162.768 C62.6666632,162.458665 61.8773378,162.304 60.992,162.304 C60.117329,162.304 59.3306702,162.458665 58.632,162.768 C57.9333298,163.077335 57.3440024,163.503997 56.864,164.048 C56.3839976,164.592003 56.0160013,165.22933 55.76,165.96 C55.5039987,166.69067 55.376,167.482662 55.376,168.336 Z M81.296,164.688 L81.296,174 L83.808,174 L83.808,164.688 L87.232,164.688 L87.232,162.576 L77.872,162.576 L77.872,164.688 L81.296,164.688 Z M93.56,168.336 C93.56,167.834664 93.6159994,167.349336 93.728,166.88 C93.8400006,166.410664 94.0186654,165.992002 94.264,165.624 C94.5093346,165.255998 94.8293314,164.962668 95.224,164.744 C95.6186686,164.525332 96.0986638,164.416 96.664,164.416 C97.2293362,164.416 97.7093314,164.525332 98.104,164.744 C98.4986686,164.962668 98.8186654,165.255998 99.064,165.624 C99.3093346,165.992002 99.4879994,166.410664 99.6,166.88 C99.7120006,167.349336 99.768,167.834664 99.768,168.336 C99.768,168.816002 99.7120006,169.282664 99.6,169.736 C99.4879994,170.189336 99.3093346,170.597332 99.064,170.96 C98.8186654,171.322668 98.4986686,171.613332 98.104,171.832 C97.7093314,172.050668 97.2293362,172.16 96.664,172.16 C96.0986638,172.16 95.6186686,172.050668 95.224,171.832 C94.8293314,171.613332 94.5093346,171.322668 94.264,170.96 C94.0186654,170.597332 93.8400006,170.189336 93.728,169.736 C93.6159994,169.282664 93.56,168.816002 93.56,168.336 Z M91.048,168.336 C91.048,169.168004 91.1759987,169.943996 91.432,170.664 C91.6880013,171.384004 92.0559976,172.010664 92.536,172.544 C93.0160024,173.077336 93.6053298,173.495998 94.304,173.8 C95.0026702,174.104002 95.789329,174.256 96.664,174.256 C97.5493378,174.256 98.3386632,174.104002 99.032,173.8 C99.7253368,173.495998 100.311998,173.077336 100.792,172.544 C101.272002,172.010664 101.639999,171.384004 101.896,170.664 C102.152001,169.943996 102.28,169.168004 102.28,168.336 C102.28,167.482662 102.152001,166.69067 101.896,165.96 C101.639999,165.22933 101.272002,164.592003 100.792,164.048 C100.311998,163.503997 99.7253368,163.077335 99.032,162.768 C98.3386632,162.458665 97.5493378,162.304 96.664,162.304 C95.789329,162.304 95.0026702,162.458665 94.304,162.768 C93.6053298,163.077335 93.0160024,163.503997 92.536,164.048 C92.0559976,164.592003 91.6880013,165.22933 91.432,165.96 C91.1759987,166.69067 91.048,167.482662 91.048,168.336 Z M116.952,167.744 L116.952,164.528 L119.704,164.528 C120.280003,164.528 120.711999,164.653332 121,164.904 C121.288001,165.154668 121.432,165.557331 121.432,166.112 C121.432,166.688003 121.288001,167.103999 121,167.36 C120.711999,167.616001 120.280003,167.744 119.704,167.744 L116.952,167.744 Z M114.44,162.576 L114.44,174 L116.952,174 L116.952,169.536 L119.464,169.536 C120.093336,169.536 120.546665,169.674665 120.824,169.952 C121.101335,170.229335 121.282666,170.666664 121.368,171.264 C121.432,171.722669 121.48,172.202664 121.512,172.704 C121.544,173.205336 121.629333,173.637332 121.768,174 L124.28,174 C124.162666,173.839999 124.074667,173.645334 124.016,173.416 C123.957333,173.186666 123.914667,172.944001 123.888,172.688 C123.861333,172.431999 123.842667,172.181335 123.832,171.936 C123.821333,171.690665 123.810667,171.477334 123.8,171.296 C123.778667,171.007999 123.738667,170.720001 123.68,170.432 C123.621333,170.143999 123.528001,169.880001 123.4,169.64 C123.271999,169.399999 123.106668,169.192001 122.904,169.016 C122.701332,168.839999 122.445335,168.709334 122.136,168.624 L122.136,168.592 C122.776003,168.335999 123.237332,167.962669 123.52,167.472 C123.802668,166.981331 123.944,166.400003 123.944,165.728 C123.944,165.290664 123.866667,164.882669 123.712,164.504 C123.557333,164.125331 123.333335,163.792001 123.04,163.504 C122.746665,163.215999 122.394669,162.989334 121.984,162.824 C121.573331,162.658666 121.112003,162.576 120.6,162.576 L114.44,162.576 Z M128.992,162.576 L128.992,174 L137.664,174 L137.664,171.888 L131.504,171.888 L131.504,169.088 L137.04,169.088 L137.04,167.136 L131.504,167.136 L131.504,164.688 L137.536,164.688 L137.536,162.576 L128.992,162.576 Z M145.24,169.584 L146.728,165.392 L146.76,165.392 L148.2,169.584 L145.24,169.584 Z M145.48,162.576 L141.16,174 L143.688,174 L144.584,171.456 L148.856,171.456 L149.72,174 L152.328,174 L148.056,162.576 L145.48,162.576 Z M156.32,162.576 L156.32,174 L164.4,174 L164.4,171.888 L158.832,171.888 L158.832,162.576 L156.32,162.576 Z M168.808,162.576 L168.808,174 L176.888,174 L176.888,171.888 L171.32,171.888 L171.32,162.576 L168.808,162.576 Z M182.48,169.552 L182.48,174 L184.992,174 L184.992,169.616 L189.232,162.576 L186.432,162.576 L183.776,167.088 L181.104,162.576 L178.288,162.576 L182.48,169.552 Z M33.6,178.576 L33.6,190 L36.112,190 L36.112,185.072 L40.736,185.072 L40.736,190 L43.248,190 L43.248,178.576 L40.736,178.576 L40.736,182.96 L36.112,182.96 L36.112,178.576 L33.6,178.576 Z M48.456,178.576 L48.456,190 L57.128,190 L57.128,187.888 L50.968,187.888 L50.968,185.088 L56.504,185.088 L56.504,183.136 L50.968,183.136 L50.968,180.688 L57,180.688 L57,178.576 L48.456,178.576 Z M61.824,178.576 L61.824,190 L69.904,190 L69.904,187.888 L64.336,187.888 L64.336,178.576 L61.824,178.576 Z M76.824,183.952 L76.824,180.528 L78.776,180.528 C79.0640014,180.528 79.341332,180.549333 79.608,180.592 C79.874668,180.634667 80.1093323,180.717333 80.312,180.84 C80.5146677,180.962667 80.6773327,181.135999 80.8,181.36 C80.9226673,181.584001 80.984,181.877332 80.984,182.24 C80.984,182.602668 80.9226673,182.895999 80.8,183.12 C80.6773327,183.344001 80.5146677,183.517333 80.312,183.64 C80.1093323,183.762667 79.874668,183.845333 79.608,183.888 C79.341332,183.930667 79.0640014,183.952 78.776,183.952 L76.824,183.952 Z M74.312,178.576 L74.312,190 L76.824,190 L76.824,185.904 L79.464,185.904 C80.1786702,185.904 80.7866642,185.800001 81.288,185.592 C81.7893358,185.383999 82.1973318,185.109335 82.512,184.768 C82.8266682,184.426665 83.0559993,184.034669 83.2,183.592 C83.3440007,183.149331 83.416,182.698669 83.416,182.24 C83.416,181.770664 83.3440007,181.317336 83.2,180.88 C83.0559993,180.442664 82.8266682,180.053335 82.512,179.712 C82.1973318,179.370665 81.7893358,179.096001 81.288,178.888 C80.7866642,178.679999 80.1786702,178.576 79.464,178.576 L74.312,178.576 Z M95.432,178.576 L95.432,190 L97.784,190 L97.784,181.984 L97.816,181.984 L100.616,190 L102.552,190 L105.352,181.904 L105.384,181.904 L105.384,190 L107.736,190 L107.736,178.576 L104.2,178.576 L101.672,186.432 L101.64,186.432 L98.968,178.576 L95.432,178.576 Z M115.904,185.552 L115.904,190 L118.416,190 L118.416,185.616 L122.656,178.576 L119.856,178.576 L117.2,183.088 L114.528,178.576 L111.712,178.576 L115.904,185.552 Z M143.76,185.68 L143.76,178.576 L141.248,178.576 L141.248,185.68 C141.248,186.533338 141.077335,187.159998 140.736,187.56 C140.394665,187.960002 139.776004,188.16 138.88,188.16 C138.367997,188.16 137.960002,188.088001 137.656,187.944 C137.351998,187.799999 137.114668,187.613334 136.944,187.384 C136.773332,187.154666 136.661334,186.890668 136.608,186.592 C136.554666,186.293332 136.528,185.989335 136.528,185.68 L136.528,178.576 L134.016,178.576 L134.016,185.68 C134.016,187.237341 134.439996,188.38933 135.288,189.136 C136.136004,189.88267 137.333326,190.256 138.88,190.256 C140.405341,190.256 141.599996,189.880004 142.464,189.128 C143.328004,188.375996 143.76,187.226674 143.76,185.68 Z M150.632,186.208 L148.2,186.208 C148.189333,186.912004 148.317332,187.519997 148.584,188.032 C148.850668,188.544003 149.210664,188.965332 149.664,189.296 C150.117336,189.626668 150.639997,189.869333 151.232,190.024 C151.824003,190.178667 152.434664,190.256 153.064,190.256 C153.842671,190.256 154.527997,190.165334 155.12,189.984 C155.712003,189.802666 156.207998,189.549335 156.608,189.224 C157.008002,188.898665 157.309332,188.512002 157.512,188.064 C157.714668,187.615998 157.816,187.130669 157.816,186.608 C157.816,185.967997 157.680001,185.442669 157.408,185.032 C157.135999,184.621331 156.813335,184.293335 156.44,184.048 C156.066665,183.802665 155.690669,183.624001 155.312,183.512 C154.933331,183.399999 154.637334,183.322667 154.424,183.28 C153.70933,183.098666 153.130669,182.949334 152.688,182.832 C152.245331,182.714666 151.898668,182.597334 151.648,182.48 C151.397332,182.362666 151.229334,182.234667 151.144,182.096 C151.058666,181.957333 151.016,181.776001 151.016,181.552 C151.016,181.306665 151.069333,181.104001 151.176,180.944 C151.282667,180.783999 151.418666,180.650667 151.584,180.544 C151.749334,180.437333 151.933332,180.362667 152.136,180.32 C152.338668,180.277333 152.541332,180.256 152.744,180.256 C153.053335,180.256 153.338665,180.282666 153.6,180.336 C153.861335,180.389334 154.093332,180.479999 154.296,180.608 C154.498668,180.736001 154.661333,180.911999 154.784,181.136 C154.906667,181.360001 154.978667,181.642665 155,181.984 L157.432,181.984 C157.432,181.322663 157.306668,180.760002 157.056,180.296 C156.805332,179.831998 156.466669,179.450668 156.04,179.152 C155.613331,178.853332 155.125336,178.637334 154.576,178.504 C154.026664,178.370666 153.453336,178.304 152.856,178.304 C152.343997,178.304 151.832003,178.373333 151.32,178.512 C150.807997,178.650667 150.349335,178.863999 149.944,179.152 C149.538665,179.440001 149.210668,179.799998 148.96,180.232 C148.709332,180.664002 148.584,181.17333 148.584,181.76 C148.584,182.282669 148.682666,182.727998 148.88,183.096 C149.077334,183.464002 149.335998,183.770665 149.656,184.016 C149.976002,184.261335 150.338665,184.461333 150.744,184.616 C151.149335,184.770667 151.565331,184.901333 151.992,185.008 C152.408002,185.125334 152.818665,185.232 153.224,185.328 C153.629335,185.424 153.991998,185.535999 154.312,185.664 C154.632002,185.792001 154.890666,185.951999 155.088,186.144 C155.285334,186.336001 155.384,186.586665 155.384,186.896 C155.384,187.184001 155.309334,187.421332 155.16,187.608 C155.010666,187.794668 154.824001,187.941333 154.6,188.048 C154.375999,188.154667 154.136001,188.226666 153.88,188.264 C153.623999,188.301334 153.384001,188.32 153.16,188.32 C152.829332,188.32 152.509335,188.28 152.2,188.2 C151.890665,188.12 151.621334,187.997334 151.392,187.832 C151.162666,187.666666 150.978667,187.450668 150.84,187.184 C150.701333,186.917332 150.632,186.592002 150.632,186.208 Z M162.304,178.576 L162.304,190 L170.976,190 L170.976,187.888 L164.816,187.888 L164.816,185.088 L170.352,185.088 L170.352,183.136 L164.816,183.136 L164.816,180.688 L170.848,180.688 L170.848,178.576 L162.304,178.576 Z M178.184,183.744 L178.184,180.528 L180.936,180.528 C181.512003,180.528 181.943999,180.653332 182.232,180.904 C182.520001,181.154668 182.664,181.557331 182.664,182.112 C182.664,182.688003 182.520001,183.103999 182.232,183.36 C181.943999,183.616001 181.512003,183.744 180.936,183.744 L178.184,183.744 Z M175.672,178.576 L175.672,190 L178.184,190 L178.184,185.536 L180.696,185.536 C181.325336,185.536 181.778665,185.674665 182.056,185.952 C182.333335,186.229335 182.514666,186.666664 182.6,187.264 C182.664,187.722669 182.712,188.202664 182.744,188.704 C182.776,189.205336 182.861333,189.637332 183,190 L185.512,190 C185.394666,189.839999 185.306667,189.645334 185.248,189.416 C185.189333,189.186666 185.146667,188.944001 185.12,188.688 C185.093333,188.431999 185.074667,188.181335 185.064,187.936 C185.053333,187.690665 185.042667,187.477334 185.032,187.296 C185.010667,187.007999 184.970667,186.720001 184.912,186.432 C184.853333,186.143999 184.760001,185.880001 184.632,185.64 C184.503999,185.399999 184.338668,185.192001 184.136,185.016 C183.933332,184.839999 183.677335,184.709334 183.368,184.624 L183.368,184.592 C184.008003,184.335999 184.469332,183.962669 184.752,183.472 C185.034668,182.981331 185.176,182.400003 185.176,181.728 C185.176,181.290664 185.098667,180.882669 184.944,180.504 C184.789333,180.125331 184.565335,179.792001 184.272,179.504 C183.978665,179.215999 183.626669,178.989334 183.216,178.824 C182.805331,178.658666 182.344003,178.576 181.832,178.576 L175.672,178.576 Z M191.936,186.208 L189.504,186.208 C189.493333,186.912004 189.621332,187.519997 189.888,188.032 C190.154668,188.544003 190.514664,188.965332 190.968,189.296 C191.421336,189.626668 191.943997,189.869333 192.536,190.024 C193.128003,190.178667 193.738664,190.256 194.368,190.256 C195.146671,190.256 195.831997,190.165334 196.424,189.984 C197.016003,189.802666 197.511998,189.549335 197.912,189.224 C198.312002,188.898665 198.613332,188.512002 198.816,188.064 C199.018668,187.615998 199.12,187.130669 199.12,186.608 C199.12,185.967997 198.984001,185.442669 198.712,185.032 C198.439999,184.621331 198.117335,184.293335 197.744,184.048 C197.370665,183.802665 196.994669,183.624001 196.616,183.512 C196.237331,183.399999 195.941334,183.322667 195.728,183.28 C195.01333,183.098666 194.434669,182.949334 193.992,182.832 C193.549331,182.714666 193.202668,182.597334 192.952,182.48 C192.701332,182.362666 192.533334,182.234667 192.448,182.096 C192.362666,181.957333 192.32,181.776001 192.32,181.552 C192.32,181.306665 192.373333,181.104001 192.48,180.944 C192.586667,180.783999 192.722666,180.650667 192.888,180.544 C193.053334,180.437333 193.237332,180.362667 193.44,180.32 C193.642668,180.277333 193.845332,180.256 194.048,180.256 C194.357335,180.256 194.642665,180.282666 194.904,180.336 C195.165335,180.389334 195.397332,180.479999 195.6,180.608 C195.802668,180.736001 195.965333,180.911999 196.088,181.136 C196.210667,181.360001 196.282667,181.642665 196.304,181.984 L198.736,181.984 C198.736,181.322663 198.610668,180.760002 198.36,180.296 C198.109332,179.831998 197.770669,179.450668 197.344,179.152 C196.917331,178.853332 196.429336,178.637334 195.88,178.504 C195.330664,178.370666 194.757336,178.304 194.16,178.304 C193.647997,178.304 193.136003,178.373333 192.624,178.512 C192.111997,178.650667 191.653335,178.863999 191.248,179.152 C190.842665,179.440001 190.514668,179.799998 190.264,180.232 C190.013332,180.664002 189.888,181.17333 189.888,181.76 C189.888,182.282669 189.986666,182.727998 190.184,183.096 C190.381334,183.464002 190.639998,183.770665 190.96,184.016 C191.280002,184.261335 191.642665,184.461333 192.048,184.616 C192.453335,184.770667 192.869331,184.901333 193.296,185.008 C193.712002,185.125334 194.122665,185.232 194.528,185.328 C194.933335,185.424 195.295998,185.535999 195.616,185.664 C195.936002,185.792001 196.194666,185.951999 196.392,186.144 C196.589334,186.336001 196.688,186.586665 196.688,186.896 C196.688,187.184001 196.613334,187.421332 196.464,187.608 C196.314666,187.794668 196.128001,187.941333 195.904,188.048 C195.679999,188.154667 195.440001,188.226666 195.184,188.264 C194.927999,188.301334 194.688001,188.32 194.464,188.32 C194.133332,188.32 193.813335,188.28 193.504,188.2 C193.194665,188.12 192.925334,187.997334 192.696,187.832 C192.466666,187.666666 192.282667,187.450668 192.144,187.184 C192.005333,186.917332 191.936,186.592002 191.936,186.208 Z" id="things-I-can-do-to-r" fill="#FFFFFF"></path>
            <path d="M362.212,148.688 L362.212,158 L364.724,158 L364.724,148.688 L368.148,148.688 L368.148,146.576 L358.788,146.576 L358.788,148.688 L362.212,148.688 Z M372.46,146.576 L372.46,158 L374.972,158 L374.972,153.072 L379.596,153.072 L379.596,158 L382.108,158 L382.108,146.576 L379.596,146.576 L379.596,150.96 L374.972,150.96 L374.972,146.576 L372.46,146.576 Z M387.316,146.576 L387.316,158 L389.828,158 L389.828,146.576 L387.316,146.576 Z M395.036,146.576 L395.036,158 L397.388,158 L397.388,150.352 L397.42,150.352 L402.172,158 L404.684,158 L404.684,146.576 L402.332,146.576 L402.332,154.24 L402.3,154.24 L397.532,146.576 L395.036,146.576 Z M418.148,156.704 L418.404,158 L420.004,158 L420.004,151.824 L415.204,151.824 L415.204,153.696 L417.732,153.696 C417.657333,154.496004 417.393336,155.106665 416.94,155.528 C416.486664,155.949335 415.844004,156.16 415.012,156.16 C414.446664,156.16 413.966669,156.050668 413.572,155.832 C413.177331,155.613332 412.857335,155.322668 412.612,154.96 C412.366665,154.597332 412.188001,154.189336 412.076,153.736 C411.963999,153.282664 411.908,152.816002 411.908,152.336 C411.908,151.834664 411.963999,151.349336 412.076,150.88 C412.188001,150.410664 412.366665,149.992002 412.612,149.624 C412.857335,149.255998 413.177331,148.962668 413.572,148.744 C413.966669,148.525332 414.446664,148.416 415.012,148.416 C415.620003,148.416 416.137331,148.575998 416.564,148.896 C416.990669,149.216002 417.278666,149.695997 417.428,150.336 L419.828,150.336 C419.764,149.68533 419.588001,149.109336 419.3,148.608 C419.011999,148.106664 418.646669,147.685335 418.204,147.344 C417.761331,147.002665 417.265336,146.744001 416.716,146.568 C416.166664,146.391999 415.59867,146.304 415.012,146.304 C414.137329,146.304 413.35067,146.458665 412.652,146.768 C411.95333,147.077335 411.364002,147.503997 410.884,148.048 C410.403998,148.592003 410.036001,149.22933 409.78,149.96 C409.523999,150.69067 409.396,151.482662 409.396,152.336 C409.396,153.168004 409.523999,153.943996 409.78,154.664 C410.036001,155.384004 410.403998,156.010664 410.884,156.544 C411.364002,157.077336 411.95333,157.495998 412.652,157.8 C413.35067,158.104002 414.137329,158.256 415.012,158.256 C415.566669,158.256 416.115997,158.141334 416.66,157.912 C417.204003,157.682666 417.699998,157.280003 418.148,156.704 Z M426.748,154.208 L424.316,154.208 C424.305333,154.912004 424.433332,155.519997 424.7,156.032 C424.966668,156.544003 425.326664,156.965332 425.78,157.296 C426.233336,157.626668 426.755997,157.869333 427.348,158.024 C427.940003,158.178667 428.550664,158.256 429.18,158.256 C429.958671,158.256 430.643997,158.165334 431.236,157.984 C431.828003,157.802666 432.323998,157.549335 432.724,157.224 C433.124002,156.898665 433.425332,156.512002 433.628,156.064 C433.830668,155.615998 433.932,155.130669 433.932,154.608 C433.932,153.967997 433.796001,153.442669 433.524,153.032 C433.251999,152.621331 432.929335,152.293335 432.556,152.048 C432.182665,151.802665 431.806669,151.624001 431.428,151.512 C431.049331,151.399999 430.753334,151.322667 430.54,151.28 C429.82533,151.098666 429.246669,150.949334 428.804,150.832 C428.361331,150.714666 428.014668,150.597334 427.764,150.48 C427.513332,150.362666 427.345334,150.234667 427.26,150.096 C427.174666,149.957333 427.132,149.776001 427.132,149.552 C427.132,149.306665 427.185333,149.104001 427.292,148.944 C427.398667,148.783999 427.534666,148.650667 427.7,148.544 C427.865334,148.437333 428.049332,148.362667 428.252,148.32 C428.454668,148.277333 428.657332,148.256 428.86,148.256 C429.169335,148.256 429.454665,148.282666 429.716,148.336 C429.977335,148.389334 430.209332,148.479999 430.412,148.608 C430.614668,148.736001 430.777333,148.911999 430.9,149.136 C431.022667,149.360001 431.094667,149.642665 431.116,149.984 L433.548,149.984 C433.548,149.322663 433.422668,148.760002 433.172,148.296 C432.921332,147.831998 432.582669,147.450668 432.156,147.152 C431.729331,146.853332 431.241336,146.637334 430.692,146.504 C430.142664,146.370666 429.569336,146.304 428.972,146.304 C428.459997,146.304 427.948003,146.373333 427.436,146.512 C426.923997,146.650667 426.465335,146.863999 426.06,147.152 C425.654665,147.440001 425.326668,147.799998 425.076,148.232 C424.825332,148.664002 424.7,149.17333 424.7,149.76 C424.7,150.282669 424.798666,150.727998 424.996,151.096 C425.193334,151.464002 425.451998,151.770665 425.772,152.016 C426.092002,152.261335 426.454665,152.461333 426.86,152.616 C427.265335,152.770667 427.681331,152.901333 428.108,153.008 C428.524002,153.125334 428.934665,153.232 429.34,153.328 C429.745335,153.424 430.107998,153.535999 430.428,153.664 C430.748002,153.792001 431.006666,153.951999 431.204,154.144 C431.401334,154.336001 431.5,154.586665 431.5,154.896 C431.5,155.184001 431.425334,155.421332 431.276,155.608 C431.126666,155.794668 430.940001,155.941333 430.716,156.048 C430.491999,156.154667 430.252001,156.226666 429.996,156.264 C429.739999,156.301334 429.500001,156.32 429.276,156.32 C428.945332,156.32 428.625335,156.28 428.316,156.2 C428.006665,156.12 427.737334,155.997334 427.508,155.832 C427.278666,155.666666 427.094667,155.450668 426.956,155.184 C426.817333,154.917332 426.748,154.592002 426.748,154.208 Z M445.868,146.576 L445.868,158 L448.38,158 L448.38,146.576 L445.868,146.576 Z M461.036,146.576 L461.036,158 L463.548,158 L463.548,153.072 L468.172,153.072 L468.172,158 L470.684,158 L470.684,146.576 L468.172,146.576 L468.172,150.96 L463.548,150.96 L463.548,146.576 L461.036,146.576 Z M478.772,153.584 L480.26,149.392 L480.292,149.392 L481.732,153.584 L478.772,153.584 Z M479.012,146.576 L474.692,158 L477.22,158 L478.116,155.456 L482.388,155.456 L483.252,158 L485.86,158 L481.588,146.576 L479.012,146.576 Z M490.908,148.688 L490.908,158 L493.42,158 L493.42,148.688 L496.844,148.688 L496.844,146.576 L487.484,146.576 L487.484,148.688 L490.908,148.688 Z M501.156,146.576 L501.156,158 L509.828,158 L509.828,155.888 L503.668,155.888 L503.668,153.088 L509.204,153.088 L509.204,151.136 L503.668,151.136 L503.668,148.688 L509.7,148.688 L509.7,146.576 L501.156,146.576 Z M351.184,171.888 L351.184,164.688 L352.976,164.688 C353.59467,164.688 354.114665,164.775999 354.536,164.952 C354.957335,165.128001 355.295999,165.381332 355.552,165.712 C355.808001,166.042668 355.991999,166.439998 356.104,166.904 C356.216001,167.368002 356.272,167.887997 356.272,168.464 C356.272,169.093336 356.192001,169.626664 356.032,170.064 C355.871999,170.501336 355.658668,170.855999 355.392,171.128 C355.125332,171.400001 354.821335,171.594666 354.48,171.712 C354.138665,171.829334 353.786668,171.888 353.424,171.888 L351.184,171.888 Z M348.672,162.576 L348.672,174 L353.6,174 C354.474671,174 355.234663,173.853335 355.88,173.56 C356.525337,173.266665 357.063998,172.864003 357.496,172.352 C357.928002,171.839997 358.250666,171.232004 358.464,170.528 C358.677334,169.823996 358.784,169.056004 358.784,168.224 C358.784,167.274662 358.653335,166.448004 358.392,165.744 C358.130665,165.039996 357.768002,164.453336 357.304,163.984 C356.839998,163.514664 356.29067,163.162668 355.656,162.928 C355.02133,162.693332 354.336004,162.576 353.6,162.576 L348.672,162.576 Z M365.544,168.336 C365.544,167.834664 365.599999,167.349336 365.712,166.88 C365.824001,166.410664 366.002665,165.992002 366.248,165.624 C366.493335,165.255998 366.813331,164.962668 367.208,164.744 C367.602669,164.525332 368.082664,164.416 368.648,164.416 C369.213336,164.416 369.693331,164.525332 370.088,164.744 C370.482669,164.962668 370.802665,165.255998 371.048,165.624 C371.293335,165.992002 371.471999,166.410664 371.584,166.88 C371.696001,167.349336 371.752,167.834664 371.752,168.336 C371.752,168.816002 371.696001,169.282664 371.584,169.736 C371.471999,170.189336 371.293335,170.597332 371.048,170.96 C370.802665,171.322668 370.482669,171.613332 370.088,171.832 C369.693331,172.050668 369.213336,172.16 368.648,172.16 C368.082664,172.16 367.602669,172.050668 367.208,171.832 C366.813331,171.613332 366.493335,171.322668 366.248,170.96 C366.002665,170.597332 365.824001,170.189336 365.712,169.736 C365.599999,169.282664 365.544,168.816002 365.544,168.336 Z M363.032,168.336 C363.032,169.168004 363.159999,169.943996 363.416,170.664 C363.672001,171.384004 364.039998,172.010664 364.52,172.544 C365.000002,173.077336 365.58933,173.495998 366.288,173.8 C366.98667,174.104002 367.773329,174.256 368.648,174.256 C369.533338,174.256 370.322663,174.104002 371.016,173.8 C371.709337,173.495998 372.295998,173.077336 372.776,172.544 C373.256002,172.010664 373.623999,171.384004 373.88,170.664 C374.136001,169.943996 374.264,169.168004 374.264,168.336 C374.264,167.482662 374.136001,166.69067 373.88,165.96 C373.623999,165.22933 373.256002,164.592003 372.776,164.048 C372.295998,163.503997 371.709337,163.077335 371.016,162.768 C370.322663,162.458665 369.533338,162.304 368.648,162.304 C367.773329,162.304 366.98667,162.458665 366.288,162.768 C365.58933,163.077335 365.000002,163.503997 364.52,164.048 C364.039998,164.592003 363.672001,165.22933 363.416,165.96 C363.159999,166.69067 363.032,167.482662 363.032,168.336 Z M378.976,162.576 L378.976,174 L381.488,174 L381.488,162.576 L378.976,162.576 Z M386.696,162.576 L386.696,174 L389.048,174 L389.048,166.352 L389.08,166.352 L393.832,174 L396.344,174 L396.344,162.576 L393.992,162.576 L393.992,170.24 L393.96,170.24 L389.192,162.576 L386.696,162.576 Z M409.808,172.704 L410.064,174 L411.664,174 L411.664,167.824 L406.864,167.824 L406.864,169.696 L409.392,169.696 C409.317333,170.496004 409.053336,171.106665 408.6,171.528 C408.146664,171.949335 407.504004,172.16 406.672,172.16 C406.106664,172.16 405.626669,172.050668 405.232,171.832 C404.837331,171.613332 404.517335,171.322668 404.272,170.96 C404.026665,170.597332 403.848001,170.189336 403.736,169.736 C403.623999,169.282664 403.568,168.816002 403.568,168.336 C403.568,167.834664 403.623999,167.349336 403.736,166.88 C403.848001,166.410664 404.026665,165.992002 404.272,165.624 C404.517335,165.255998 404.837331,164.962668 405.232,164.744 C405.626669,164.525332 406.106664,164.416 406.672,164.416 C407.280003,164.416 407.797331,164.575998 408.224,164.896 C408.650669,165.216002 408.938666,165.695997 409.088,166.336 L411.488,166.336 C411.424,165.68533 411.248001,165.109336 410.96,164.608 C410.671999,164.106664 410.306669,163.685335 409.864,163.344 C409.421331,163.002665 408.925336,162.744001 408.376,162.568 C407.826664,162.391999 407.25867,162.304 406.672,162.304 C405.797329,162.304 405.01067,162.458665 404.312,162.768 C403.61333,163.077335 403.024002,163.503997 402.544,164.048 C402.063998,164.592003 401.696001,165.22933 401.44,165.96 C401.183999,166.69067 401.056,167.482662 401.056,168.336 C401.056,169.168004 401.183999,169.943996 401.44,170.664 C401.696001,171.384004 402.063998,172.010664 402.544,172.544 C403.024002,173.077336 403.61333,173.495998 404.312,173.8 C405.01067,174.104002 405.797329,174.256 406.672,174.256 C407.226669,174.256 407.775997,174.141334 408.32,173.912 C408.864003,173.682666 409.359998,173.280003 409.808,172.704 Z M425.856,170.208 L423.424,170.208 C423.413333,170.912004 423.541332,171.519997 423.808,172.032 C424.074668,172.544003 424.434664,172.965332 424.888,173.296 C425.341336,173.626668 425.863997,173.869333 426.456,174.024 C427.048003,174.178667 427.658664,174.256 428.288,174.256 C429.066671,174.256 429.751997,174.165334 430.344,173.984 C430.936003,173.802666 431.431998,173.549335 431.832,173.224 C432.232002,172.898665 432.533332,172.512002 432.736,172.064 C432.938668,171.615998 433.04,171.130669 433.04,170.608 C433.04,169.967997 432.904001,169.442669 432.632,169.032 C432.359999,168.621331 432.037335,168.293335 431.664,168.048 C431.290665,167.802665 430.914669,167.624001 430.536,167.512 C430.157331,167.399999 429.861334,167.322667 429.648,167.28 C428.93333,167.098666 428.354669,166.949334 427.912,166.832 C427.469331,166.714666 427.122668,166.597334 426.872,166.48 C426.621332,166.362666 426.453334,166.234667 426.368,166.096 C426.282666,165.957333 426.24,165.776001 426.24,165.552 C426.24,165.306665 426.293333,165.104001 426.4,164.944 C426.506667,164.783999 426.642666,164.650667 426.808,164.544 C426.973334,164.437333 427.157332,164.362667 427.36,164.32 C427.562668,164.277333 427.765332,164.256 427.968,164.256 C428.277335,164.256 428.562665,164.282666 428.824,164.336 C429.085335,164.389334 429.317332,164.479999 429.52,164.608 C429.722668,164.736001 429.885333,164.911999 430.008,165.136 C430.130667,165.360001 430.202667,165.642665 430.224,165.984 L432.656,165.984 C432.656,165.322663 432.530668,164.760002 432.28,164.296 C432.029332,163.831998 431.690669,163.450668 431.264,163.152 C430.837331,162.853332 430.349336,162.637334 429.8,162.504 C429.250664,162.370666 428.677336,162.304 428.08,162.304 C427.567997,162.304 427.056003,162.373333 426.544,162.512 C426.031997,162.650667 425.573335,162.863999 425.168,163.152 C424.762665,163.440001 424.434668,163.799998 424.184,164.232 C423.933332,164.664002 423.808,165.17333 423.808,165.76 C423.808,166.282669 423.906666,166.727998 424.104,167.096 C424.301334,167.464002 424.559998,167.770665 424.88,168.016 C425.200002,168.261335 425.562665,168.461333 425.968,168.616 C426.373335,168.770667 426.789331,168.901333 427.216,169.008 C427.632002,169.125334 428.042665,169.232 428.448,169.328 C428.853335,169.424 429.215998,169.535999 429.536,169.664 C429.856002,169.792001 430.114666,169.951999 430.312,170.144 C430.509334,170.336001 430.608,170.586665 430.608,170.896 C430.608,171.184001 430.533334,171.421332 430.384,171.608 C430.234666,171.794668 430.048001,171.941333 429.824,172.048 C429.599999,172.154667 429.360001,172.226666 429.104,172.264 C428.847999,172.301334 428.608001,172.32 428.384,172.32 C428.053332,172.32 427.733335,172.28 427.424,172.2 C427.114665,172.12 426.845334,171.997334 426.616,171.832 C426.386666,171.666666 426.202667,171.450668 426.064,171.184 C425.925333,170.917332 425.856,170.592002 425.856,170.208 Z M439.544,168.336 C439.544,167.834664 439.599999,167.349336 439.712,166.88 C439.824001,166.410664 440.002665,165.992002 440.248,165.624 C440.493335,165.255998 440.813331,164.962668 441.208,164.744 C441.602669,164.525332 442.082664,164.416 442.648,164.416 C443.213336,164.416 443.693331,164.525332 444.088,164.744 C444.482669,164.962668 444.802665,165.255998 445.048,165.624 C445.293335,165.992002 445.471999,166.410664 445.584,166.88 C445.696001,167.349336 445.752,167.834664 445.752,168.336 C445.752,168.816002 445.696001,169.282664 445.584,169.736 C445.471999,170.189336 445.293335,170.597332 445.048,170.96 C444.802665,171.322668 444.482669,171.613332 444.088,171.832 C443.693331,172.050668 443.213336,172.16 442.648,172.16 C442.082664,172.16 441.602669,172.050668 441.208,171.832 C440.813331,171.613332 440.493335,171.322668 440.248,170.96 C440.002665,170.597332 439.824001,170.189336 439.712,169.736 C439.599999,169.282664 439.544,168.816002 439.544,168.336 Z M437.032,168.336 C437.032,169.168004 437.159999,169.943996 437.416,170.664 C437.672001,171.384004 438.039998,172.010664 438.52,172.544 C439.000002,173.077336 439.58933,173.495998 440.288,173.8 C440.98667,174.104002 441.773329,174.256 442.648,174.256 C443.533338,174.256 444.322663,174.104002 445.016,173.8 C445.709337,173.495998 446.295998,173.077336 446.776,172.544 C447.256002,172.010664 447.623999,171.384004 447.88,170.664 C448.136001,169.943996 448.264,169.168004 448.264,168.336 C448.264,167.482662 448.136001,166.69067 447.88,165.96 C447.623999,165.22933 447.256002,164.592003 446.776,164.048 C446.295998,163.503997 445.709337,163.077335 445.016,162.768 C444.322663,162.458665 443.533338,162.304 442.648,162.304 C441.773329,162.304 440.98667,162.458665 440.288,162.768 C439.58933,163.077335 439.000002,163.503997 438.52,164.048 C438.039998,164.592003 437.672001,165.22933 437.416,165.96 C437.159999,166.69067 437.032,167.482662 437.032,168.336 Z M462.136,170.208 L459.704,170.208 C459.693333,170.912004 459.821332,171.519997 460.088,172.032 C460.354668,172.544003 460.714664,172.965332 461.168,173.296 C461.621336,173.626668 462.143997,173.869333 462.736,174.024 C463.328003,174.178667 463.938664,174.256 464.568,174.256 C465.346671,174.256 466.031997,174.165334 466.624,173.984 C467.216003,173.802666 467.711998,173.549335 468.112,173.224 C468.512002,172.898665 468.813332,172.512002 469.016,172.064 C469.218668,171.615998 469.32,171.130669 469.32,170.608 C469.32,169.967997 469.184001,169.442669 468.912,169.032 C468.639999,168.621331 468.317335,168.293335 467.944,168.048 C467.570665,167.802665 467.194669,167.624001 466.816,167.512 C466.437331,167.399999 466.141334,167.322667 465.928,167.28 C465.21333,167.098666 464.634669,166.949334 464.192,166.832 C463.749331,166.714666 463.402668,166.597334 463.152,166.48 C462.901332,166.362666 462.733334,166.234667 462.648,166.096 C462.562666,165.957333 462.52,165.776001 462.52,165.552 C462.52,165.306665 462.573333,165.104001 462.68,164.944 C462.786667,164.783999 462.922666,164.650667 463.088,164.544 C463.253334,164.437333 463.437332,164.362667 463.64,164.32 C463.842668,164.277333 464.045332,164.256 464.248,164.256 C464.557335,164.256 464.842665,164.282666 465.104,164.336 C465.365335,164.389334 465.597332,164.479999 465.8,164.608 C466.002668,164.736001 466.165333,164.911999 466.288,165.136 C466.410667,165.360001 466.482667,165.642665 466.504,165.984 L468.936,165.984 C468.936,165.322663 468.810668,164.760002 468.56,164.296 C468.309332,163.831998 467.970669,163.450668 467.544,163.152 C467.117331,162.853332 466.629336,162.637334 466.08,162.504 C465.530664,162.370666 464.957336,162.304 464.36,162.304 C463.847997,162.304 463.336003,162.373333 462.824,162.512 C462.311997,162.650667 461.853335,162.863999 461.448,163.152 C461.042665,163.440001 460.714668,163.799998 460.464,164.232 C460.213332,164.664002 460.088,165.17333 460.088,165.76 C460.088,166.282669 460.186666,166.727998 460.384,167.096 C460.581334,167.464002 460.839998,167.770665 461.16,168.016 C461.480002,168.261335 461.842665,168.461333 462.248,168.616 C462.653335,168.770667 463.069331,168.901333 463.496,169.008 C463.912002,169.125334 464.322665,169.232 464.728,169.328 C465.133335,169.424 465.495998,169.535999 465.816,169.664 C466.136002,169.792001 466.394666,169.951999 466.592,170.144 C466.789334,170.336001 466.888,170.586665 466.888,170.896 C466.888,171.184001 466.813334,171.421332 466.664,171.608 C466.514666,171.794668 466.328001,171.941333 466.104,172.048 C465.879999,172.154667 465.640001,172.226666 465.384,172.264 C465.127999,172.301334 464.888001,172.32 464.664,172.32 C464.333332,172.32 464.013335,172.28 463.704,172.2 C463.394665,172.12 463.125334,171.997334 462.896,171.832 C462.666666,171.666666 462.482667,171.450668 462.344,171.184 C462.205333,170.917332 462.136,170.592002 462.136,170.208 Z M475.824,168.336 C475.824,167.834664 475.879999,167.349336 475.992,166.88 C476.104001,166.410664 476.282665,165.992002 476.528,165.624 C476.773335,165.255998 477.093331,164.962668 477.488,164.744 C477.882669,164.525332 478.362664,164.416 478.928,164.416 C479.493336,164.416 479.973331,164.525332 480.368,164.744 C480.762669,164.962668 481.082665,165.255998 481.328,165.624 C481.573335,165.992002 481.751999,166.410664 481.864,166.88 C481.976001,167.349336 482.032,167.834664 482.032,168.336 C482.032,168.816002 481.976001,169.282664 481.864,169.736 C481.751999,170.189336 481.573335,170.597332 481.328,170.96 C481.082665,171.322668 480.762669,171.613332 480.368,171.832 C479.973331,172.050668 479.493336,172.16 478.928,172.16 C478.362664,172.16 477.882669,172.050668 477.488,171.832 C477.093331,171.613332 476.773335,171.322668 476.528,170.96 C476.282665,170.597332 476.104001,170.189336 475.992,169.736 C475.879999,169.282664 475.824,168.816002 475.824,168.336 Z M473.312,168.336 C473.312,169.168004 473.439999,169.943996 473.696,170.664 C473.952001,171.384004 474.319998,172.010664 474.8,172.544 C475.280002,173.077336 475.86933,173.495998 476.568,173.8 C477.26667,174.104002 478.053329,174.256 478.928,174.256 C479.813338,174.256 480.602663,174.104002 481.296,173.8 C481.989337,173.495998 482.575998,173.077336 483.056,172.544 C483.536002,172.010664 483.903999,171.384004 484.16,170.664 C484.416001,169.943996 484.544,169.168004 484.544,168.336 C484.544,167.482662 484.416001,166.69067 484.16,165.96 C483.903999,165.22933 483.536002,164.592003 483.056,164.048 C482.575998,163.503997 481.989337,163.077335 481.296,162.768 C480.602663,162.458665 479.813338,162.304 478.928,162.304 C478.053329,162.304 477.26667,162.458665 476.568,162.768 C475.86933,163.077335 475.280002,163.503997 474.8,164.048 C474.319998,164.592003 473.952001,165.22933 473.696,165.96 C473.439999,166.69067 473.312,167.482662 473.312,168.336 Z M498.416,170.208 L495.984,170.208 C495.973333,170.912004 496.101332,171.519997 496.368,172.032 C496.634668,172.544003 496.994664,172.965332 497.448,173.296 C497.901336,173.626668 498.423997,173.869333 499.016,174.024 C499.608003,174.178667 500.218664,174.256 500.848,174.256 C501.626671,174.256 502.311997,174.165334 502.904,173.984 C503.496003,173.802666 503.991998,173.549335 504.392,173.224 C504.792002,172.898665 505.093332,172.512002 505.296,172.064 C505.498668,171.615998 505.6,171.130669 505.6,170.608 C505.6,169.967997 505.464001,169.442669 505.192,169.032 C504.919999,168.621331 504.597335,168.293335 504.224,168.048 C503.850665,167.802665 503.474669,167.624001 503.096,167.512 C502.717331,167.399999 502.421334,167.322667 502.208,167.28 C501.49333,167.098666 500.914669,166.949334 500.472,166.832 C500.029331,166.714666 499.682668,166.597334 499.432,166.48 C499.181332,166.362666 499.013334,166.234667 498.928,166.096 C498.842666,165.957333 498.8,165.776001 498.8,165.552 C498.8,165.306665 498.853333,165.104001 498.96,164.944 C499.066667,164.783999 499.202666,164.650667 499.368,164.544 C499.533334,164.437333 499.717332,164.362667 499.92,164.32 C500.122668,164.277333 500.325332,164.256 500.528,164.256 C500.837335,164.256 501.122665,164.282666 501.384,164.336 C501.645335,164.389334 501.877332,164.479999 502.08,164.608 C502.282668,164.736001 502.445333,164.911999 502.568,165.136 C502.690667,165.360001 502.762667,165.642665 502.784,165.984 L505.216,165.984 C505.216,165.322663 505.090668,164.760002 504.84,164.296 C504.589332,163.831998 504.250669,163.450668 503.824,163.152 C503.397331,162.853332 502.909336,162.637334 502.36,162.504 C501.810664,162.370666 501.237336,162.304 500.64,162.304 C500.127997,162.304 499.616003,162.373333 499.104,162.512 C498.591997,162.650667 498.133335,162.863999 497.728,163.152 C497.322665,163.440001 496.994668,163.799998 496.744,164.232 C496.493332,164.664002 496.368,165.17333 496.368,165.76 C496.368,166.282669 496.466666,166.727998 496.664,167.096 C496.861334,167.464002 497.119998,167.770665 497.44,168.016 C497.760002,168.261335 498.122665,168.461333 498.528,168.616 C498.933335,168.770667 499.349331,168.901333 499.776,169.008 C500.192002,169.125334 500.602665,169.232 501.008,169.328 C501.413335,169.424 501.775998,169.535999 502.096,169.664 C502.416002,169.792001 502.674666,169.951999 502.872,170.144 C503.069334,170.336001 503.168,170.586665 503.168,170.896 C503.168,171.184001 503.093334,171.421332 502.944,171.608 C502.794666,171.794668 502.608001,171.941333 502.384,172.048 C502.159999,172.154667 501.920001,172.226666 501.664,172.264 C501.407999,172.301334 501.168001,172.32 500.944,172.32 C500.613332,172.32 500.293335,172.28 499.984,172.2 C499.674665,172.12 499.405334,171.997334 499.176,171.832 C498.946666,171.666666 498.762667,171.450668 498.624,171.184 C498.485333,170.917332 498.416,170.592002 498.416,170.208 Z M512.104,168.336 C512.104,167.834664 512.159999,167.349336 512.272,166.88 C512.384001,166.410664 512.562665,165.992002 512.808,165.624 C513.053335,165.255998 513.373331,164.962668 513.768,164.744 C514.162669,164.525332 514.642664,164.416 515.208,164.416 C515.773336,164.416 516.253331,164.525332 516.648,164.744 C517.042669,164.962668 517.362665,165.255998 517.608,165.624 C517.853335,165.992002 518.031999,166.410664 518.144,166.88 C518.256001,167.349336 518.312,167.834664 518.312,168.336 C518.312,168.816002 518.256001,169.282664 518.144,169.736 C518.031999,170.189336 517.853335,170.597332 517.608,170.96 C517.362665,171.322668 517.042669,171.613332 516.648,171.832 C516.253331,172.050668 515.773336,172.16 515.208,172.16 C514.642664,172.16 514.162669,172.050668 513.768,171.832 C513.373331,171.613332 513.053335,171.322668 512.808,170.96 C512.562665,170.597332 512.384001,170.189336 512.272,169.736 C512.159999,169.282664 512.104,168.816002 512.104,168.336 Z M509.592,168.336 C509.592,169.168004 509.719999,169.943996 509.976,170.664 C510.232001,171.384004 510.599998,172.010664 511.08,172.544 C511.560002,173.077336 512.14933,173.495998 512.848,173.8 C513.54667,174.104002 514.333329,174.256 515.208,174.256 C516.093338,174.256 516.882663,174.104002 517.576,173.8 C518.269337,173.495998 518.855998,173.077336 519.336,172.544 C519.816002,172.010664 520.183999,171.384004 520.44,170.664 C520.696001,169.943996 520.824,169.168004 520.824,168.336 C520.824,167.482662 520.696001,166.69067 520.44,165.96 C520.183999,165.22933 519.816002,164.592003 519.336,164.048 C518.855998,163.503997 518.269337,163.077335 517.576,162.768 C516.882663,162.458665 516.093338,162.304 515.208,162.304 C514.333329,162.304 513.54667,162.458665 512.848,162.768 C512.14933,163.077335 511.560002,163.503997 511.08,164.048 C510.599998,164.592003 510.232001,165.22933 509.976,165.96 C509.719999,166.69067 509.592,167.482662 509.592,168.336 Z M382.112,190 L385.904,178.576 L383.312,178.576 L380.736,186.608 L380.704,186.608 L378.16,178.576 L375.584,178.576 L379.28,190 L382.112,190 Z M389.88,178.576 L389.88,190 L398.552,190 L398.552,187.888 L392.392,187.888 L392.392,185.088 L397.928,185.088 L397.928,183.136 L392.392,183.136 L392.392,180.688 L398.424,180.688 L398.424,178.576 L389.88,178.576 Z M405.76,183.744 L405.76,180.528 L408.512,180.528 C409.088003,180.528 409.519999,180.653332 409.808,180.904 C410.096001,181.154668 410.24,181.557331 410.24,182.112 C410.24,182.688003 410.096001,183.103999 409.808,183.36 C409.519999,183.616001 409.088003,183.744 408.512,183.744 L405.76,183.744 Z M403.248,178.576 L403.248,190 L405.76,190 L405.76,185.536 L408.272,185.536 C408.901336,185.536 409.354665,185.674665 409.632,185.952 C409.909335,186.229335 410.090666,186.666664 410.176,187.264 C410.24,187.722669 410.288,188.202664 410.32,188.704 C410.352,189.205336 410.437333,189.637332 410.576,190 L413.088,190 C412.970666,189.839999 412.882667,189.645334 412.824,189.416 C412.765333,189.186666 412.722667,188.944001 412.696,188.688 C412.669333,188.431999 412.650667,188.181335 412.64,187.936 C412.629333,187.690665 412.618667,187.477334 412.608,187.296 C412.586667,187.007999 412.546667,186.720001 412.488,186.432 C412.429333,186.143999 412.336001,185.880001 412.208,185.64 C412.079999,185.399999 411.914668,185.192001 411.712,185.016 C411.509332,184.839999 411.253335,184.709334 410.944,184.624 L410.944,184.592 C411.584003,184.335999 412.045332,183.962669 412.328,183.472 C412.610668,182.981331 412.752,182.400003 412.752,181.728 C412.752,181.290664 412.674667,180.882669 412.52,180.504 C412.365333,180.125331 412.141335,179.792001 411.848,179.504 C411.554665,179.215999 411.202669,178.989334 410.792,178.824 C410.381331,178.658666 409.920003,178.576 409.408,178.576 L403.248,178.576 Z M420.168,185.552 L420.168,190 L422.68,190 L422.68,185.616 L426.92,178.576 L424.12,178.576 L421.464,183.088 L418.792,178.576 L415.976,178.576 L420.168,185.552 Z M438.328,178.576 L438.328,190 L440.68,190 L440.68,181.984 L440.712,181.984 L443.512,190 L445.448,190 L448.248,181.904 L448.28,181.904 L448.28,190 L450.632,190 L450.632,178.576 L447.096,178.576 L444.568,186.432 L444.536,186.432 L441.864,178.576 L438.328,178.576 Z M465.536,185.68 L465.536,178.576 L463.024,178.576 L463.024,185.68 C463.024,186.533338 462.853335,187.159998 462.512,187.56 C462.170665,187.960002 461.552004,188.16 460.656,188.16 C460.143997,188.16 459.736002,188.088001 459.432,187.944 C459.127998,187.799999 458.890668,187.613334 458.72,187.384 C458.549332,187.154666 458.437334,186.890668 458.384,186.592 C458.330666,186.293332 458.304,185.989335 458.304,185.68 L458.304,178.576 L455.792,178.576 L455.792,185.68 C455.792,187.237341 456.215996,188.38933 457.064,189.136 C457.912004,189.88267 459.109326,190.256 460.656,190.256 C462.181341,190.256 463.375996,189.880004 464.24,189.128 C465.104004,188.375996 465.536,187.226674 465.536,185.68 Z M478.312,182.416 L480.744,182.416 C480.669333,181.754663 480.488001,181.168003 480.2,180.656 C479.911999,180.143997 479.546669,179.714668 479.104,179.368 C478.661331,179.021332 478.160003,178.757334 477.6,178.576 C477.039997,178.394666 476.445336,178.304 475.816,178.304 C474.941329,178.304 474.15467,178.458665 473.456,178.768 C472.75733,179.077335 472.168002,179.503997 471.688,180.048 C471.207998,180.592003 470.840001,181.22933 470.584,181.96 C470.327999,182.69067 470.2,183.482662 470.2,184.336 C470.2,185.168004 470.327999,185.943996 470.584,186.664 C470.840001,187.384004 471.207998,188.010664 471.688,188.544 C472.168002,189.077336 472.75733,189.495998 473.456,189.8 C474.15467,190.104002 474.941329,190.256 475.816,190.256 C476.520004,190.256 477.16533,190.149334 477.752,189.936 C478.33867,189.722666 478.850664,189.413335 479.288,189.008 C479.725336,188.602665 480.077332,188.112003 480.344,187.536 C480.610668,186.959997 480.776,186.31467 480.84,185.6 L478.408,185.6 C478.312,186.368004 478.048002,186.986664 477.616,187.456 C477.183998,187.925336 476.584004,188.16 475.816,188.16 C475.250664,188.16 474.770669,188.050668 474.376,187.832 C473.981331,187.613332 473.661335,187.322668 473.416,186.96 C473.170665,186.597332 472.992001,186.189336 472.88,185.736 C472.767999,185.282664 472.712,184.816002 472.712,184.336 C472.712,183.834664 472.767999,183.349336 472.88,182.88 C472.992001,182.410664 473.170665,181.992002 473.416,181.624 C473.661335,181.255998 473.981331,180.962668 474.376,180.744 C474.770669,180.525332 475.250664,180.416 475.816,180.416 C476.125335,180.416 476.421332,180.466666 476.704,180.568 C476.986668,180.669334 477.239999,180.810666 477.464,180.992 C477.688001,181.173334 477.874666,181.383999 478.024,181.624 C478.173334,181.864001 478.269333,182.127999 478.312,182.416 Z M485.552,178.576 L485.552,190 L488.064,190 L488.064,185.072 L492.688,185.072 L492.688,190 L495.2,190 L495.2,178.576 L492.688,178.576 L492.688,182.96 L488.064,182.96 L488.064,178.576 L485.552,178.576 Z" id="things-I-hate-doing" fill="#FFFFFF"></path>
            <path d="M243.417,157 L246.105,147.004 L243.949,147.004 L242.311,153.892 L242.283,153.892 L240.575,147.004 L238.517,147.004 L236.781,153.808 L236.753,153.808 L235.171,147.004 L232.973,147.004 L235.619,157 L237.845,157 L239.511,150.196 L239.539,150.196 L241.233,157 L243.417,157 Z M252.311,151.526 L252.311,148.712 L254.719,148.712 C255.223003,148.712 255.600999,148.821666 255.853,149.041 C256.105001,149.260334 256.231,149.612664 256.231,150.098 C256.231,150.602003 256.105001,150.965999 255.853,151.19 C255.600999,151.414001 255.223003,151.526 254.719,151.526 L252.311,151.526 Z M250.113,147.004 L250.113,157 L252.311,157 L252.311,153.094 L254.509,153.094 C255.059669,153.094 255.456332,153.215332 255.699,153.458 C255.941668,153.700668 256.100333,154.083331 256.175,154.606 C256.231,155.007335 256.273,155.427331 256.301,155.866 C256.329,156.304669 256.403666,156.682665 256.525,157 L258.723,157 C258.620333,156.859999 258.543334,156.689668 258.492,156.489 C258.440666,156.288332 258.403333,156.076001 258.38,155.852 C258.356667,155.627999 258.340333,155.408668 258.331,155.194 C258.321667,154.979332 258.312333,154.792667 258.303,154.634 C258.284333,154.381999 258.249334,154.130001 258.198,153.878 C258.146666,153.625999 258.065001,153.395001 257.953,153.185 C257.840999,152.974999 257.696334,152.793001 257.519,152.639 C257.341666,152.484999 257.117668,152.370667 256.847,152.296 L256.847,152.268 C257.407003,152.043999 257.810665,151.717335 258.058,151.288 C258.305335,150.858665 258.429,150.350003 258.429,149.762 C258.429,149.379331 258.361334,149.022335 258.226,148.691 C258.090666,148.359665 257.894668,148.068001 257.638,147.816 C257.381332,147.563999 257.073335,147.365667 256.714,147.221 C256.354665,147.076333 255.951002,147.004 255.503,147.004 L250.113,147.004 Z M263.221,147.004 L263.221,157 L265.419,157 L265.419,147.004 L263.221,147.004 Z M272.563,148.852 L272.563,157 L274.761,157 L274.761,148.852 L277.757,148.852 L277.757,147.004 L269.567,147.004 L269.567,148.852 L272.563,148.852 Z M281.905,147.004 L281.905,157 L284.103,157 L284.103,147.004 L281.905,147.004 Z M289.035,147.004 L289.035,157 L291.093,157 L291.093,150.308 L291.121,150.308 L295.279,157 L297.477,157 L297.477,147.004 L295.419,147.004 L295.419,153.71 L295.391,153.71 L291.219,147.004 L289.035,147.004 Z M309.633,155.866 L309.857,157 L311.257,157 L311.257,151.596 L307.057,151.596 L307.057,153.234 L309.269,153.234 C309.203666,153.934003 308.972669,154.468331 308.576,154.837 C308.179331,155.205669 307.617004,155.39 306.889,155.39 C306.394331,155.39 305.974335,155.294334 305.629,155.103 C305.283665,154.911666 305.003668,154.657335 304.789,154.34 C304.574332,154.022665 304.418,153.665669 304.32,153.269 C304.222,152.872331 304.173,152.464002 304.173,152.044 C304.173,151.605331 304.222,151.180669 304.32,150.77 C304.418,150.359331 304.574332,149.993002 304.789,149.671 C305.003668,149.348998 305.283665,149.092334 305.629,148.901 C305.974335,148.709666 306.394331,148.614 306.889,148.614 C307.421003,148.614 307.873665,148.753999 308.247,149.034 C308.620335,149.314001 308.872333,149.733997 309.003,150.294 L311.103,150.294 C311.047,149.724664 310.893001,149.220669 310.641,148.782 C310.388999,148.343331 310.069335,147.974668 309.682,147.676 C309.294665,147.377332 308.860669,147.151001 308.38,146.997 C307.899331,146.842999 307.402336,146.766 306.889,146.766 C306.123663,146.766 305.435336,146.901332 304.824,147.172 C304.212664,147.442668 303.697002,147.815998 303.277,148.292 C302.856998,148.768002 302.535001,149.325663 302.311,149.965 C302.086999,150.604337 301.975,151.29733 301.975,152.044 C301.975,152.772004 302.086999,153.450997 302.311,154.081 C302.535001,154.711003 302.856998,155.259331 303.277,155.726 C303.697002,156.192669 304.212664,156.558999 304.824,156.825 C305.435336,157.091001 306.123663,157.224 306.889,157.224 C307.374336,157.224 307.854998,157.123668 308.331,156.923 C308.807002,156.722332 309.240998,156.370003 309.633,155.866 Z M195.826,171.152 L195.826,164.852 L197.394,164.852 C197.935336,164.852 198.390331,164.928999 198.759,165.083 C199.127669,165.237001 199.423999,165.458665 199.648,165.748 C199.872001,166.037335 200.033,166.384998 200.131,166.791 C200.229,167.197002 200.278,167.651997 200.278,168.156 C200.278,168.706669 200.208001,169.173331 200.068,169.556 C199.927999,169.938669 199.741334,170.248999 199.508,170.487 C199.274665,170.725001 199.008668,170.895333 198.71,170.998 C198.411332,171.100667 198.103335,171.152 197.786,171.152 L195.826,171.152 Z M193.628,163.004 L193.628,173 L197.94,173 C198.705337,173 199.370331,172.871668 199.935,172.615 C200.499669,172.358332 200.970998,172.006002 201.349,171.558 C201.727002,171.109998 202.009332,170.578003 202.196,169.962 C202.382668,169.345997 202.476,168.674004 202.476,167.946 C202.476,167.115329 202.361668,166.392003 202.133,165.776 C201.904332,165.159997 201.587002,164.646669 201.181,164.236 C200.774998,163.825331 200.294336,163.517334 199.739,163.312 C199.183664,163.106666 198.584003,163.004 197.94,163.004 L193.628,163.004 Z M208.766,168.044 C208.766,167.605331 208.815,167.180669 208.913,166.77 C209.011,166.359331 209.167332,165.993002 209.382,165.671 C209.596668,165.348998 209.876665,165.092334 210.222,164.901 C210.567335,164.709666 210.987331,164.614 211.482,164.614 C211.976669,164.614 212.396665,164.709666 212.742,164.901 C213.087335,165.092334 213.367332,165.348998 213.582,165.671 C213.796668,165.993002 213.953,166.359331 214.051,166.77 C214.149,167.180669 214.198,167.605331 214.198,168.044 C214.198,168.464002 214.149,168.872331 214.051,169.269 C213.953,169.665669 213.796668,170.022665 213.582,170.34 C213.367332,170.657335 213.087335,170.911666 212.742,171.103 C212.396665,171.294334 211.976669,171.39 211.482,171.39 C210.987331,171.39 210.567335,171.294334 210.222,171.103 C209.876665,170.911666 209.596668,170.657335 209.382,170.34 C209.167332,170.022665 209.011,169.665669 208.913,169.269 C208.815,168.872331 208.766,168.464002 208.766,168.044 Z M206.568,168.044 C206.568,168.772004 206.679999,169.450997 206.904,170.081 C207.128001,170.711003 207.449998,171.259331 207.87,171.726 C208.290002,172.192669 208.805664,172.558999 209.417,172.825 C210.028336,173.091001 210.716663,173.224 211.482,173.224 C212.256671,173.224 212.94733,173.091001 213.554,172.825 C214.16067,172.558999 214.673998,172.192669 215.094,171.726 C215.514002,171.259331 215.835999,170.711003 216.06,170.081 C216.284001,169.450997 216.396,168.772004 216.396,168.044 C216.396,167.29733 216.284001,166.604337 216.06,165.965 C215.835999,165.325663 215.514002,164.768002 215.094,164.292 C214.673998,163.815998 214.16067,163.442668 213.554,163.172 C212.94733,162.901332 212.256671,162.766 211.482,162.766 C210.716663,162.766 210.028336,162.901332 209.417,163.172 C208.805664,163.442668 208.290002,163.815998 207.87,164.292 C207.449998,164.768002 207.128001,165.325663 206.904,165.965 C206.679999,166.604337 206.568,167.29733 206.568,168.044 Z M227.558,166.364 L229.686,166.364 C229.620666,165.78533 229.462001,165.272002 229.21,164.824 C228.957999,164.375998 228.638335,164.000335 228.251,163.697 C227.863665,163.393665 227.425002,163.162667 226.935,163.004 C226.444998,162.845333 225.924669,162.766 225.374,162.766 C224.608663,162.766 223.920336,162.901332 223.309,163.172 C222.697664,163.442668 222.182002,163.815998 221.762,164.292 C221.341998,164.768002 221.020001,165.325663 220.796,165.965 C220.571999,166.604337 220.46,167.29733 220.46,168.044 C220.46,168.772004 220.571999,169.450997 220.796,170.081 C221.020001,170.711003 221.341998,171.259331 221.762,171.726 C222.182002,172.192669 222.697664,172.558999 223.309,172.825 C223.920336,173.091001 224.608663,173.224 225.374,173.224 C225.990003,173.224 226.554664,173.130668 227.068,172.944 C227.581336,172.757332 228.029331,172.486668 228.412,172.132 C228.794669,171.777332 229.102666,171.348003 229.336,170.844 C229.569334,170.339997 229.714,169.775336 229.77,169.15 L227.642,169.15 C227.558,169.822003 227.327002,170.363331 226.949,170.774 C226.570998,171.184669 226.046003,171.39 225.374,171.39 C224.879331,171.39 224.459335,171.294334 224.114,171.103 C223.768665,170.911666 223.488668,170.657335 223.274,170.34 C223.059332,170.022665 222.903,169.665669 222.805,169.269 C222.707,168.872331 222.658,168.464002 222.658,168.044 C222.658,167.605331 222.707,167.180669 222.805,166.77 C222.903,166.359331 223.059332,165.993002 223.274,165.671 C223.488668,165.348998 223.768665,165.092334 224.114,164.901 C224.459335,164.709666 224.879331,164.614 225.374,164.614 C225.644668,164.614 225.903665,164.658333 226.151,164.747 C226.398335,164.835667 226.619999,164.959333 226.816,165.118 C227.012001,165.276667 227.175333,165.460999 227.306,165.671 C227.436667,165.881001 227.520666,166.111999 227.558,166.364 Z M242.752,169.22 L242.752,163.004 L240.554,163.004 L240.554,169.22 C240.554,169.96667 240.404668,170.514998 240.106,170.865 C239.807332,171.215002 239.266004,171.39 238.482,171.39 C238.033998,171.39 237.677001,171.327001 237.411,171.201 C237.144999,171.074999 236.937334,170.911668 236.788,170.711 C236.638666,170.510332 236.540667,170.279335 236.494,170.018 C236.447333,169.756665 236.424,169.490668 236.424,169.22 L236.424,163.004 L234.226,163.004 L234.226,169.22 C234.226,170.582673 234.596996,171.590663 235.339,172.244 C236.081004,172.897337 237.12866,173.224 238.482,173.224 C239.816673,173.224 240.861996,172.895003 241.618,172.237 C242.374004,171.578997 242.752,170.57334 242.752,169.22 Z M247.642,163.004 L247.642,173 L249.7,173 L249.7,165.986 L249.728,165.986 L252.178,173 L253.872,173 L256.322,165.916 L256.35,165.916 L256.35,173 L258.408,173 L258.408,163.004 L255.314,163.004 L253.102,169.878 L253.074,169.878 L250.736,163.004 L247.642,163.004 Z M263.34,163.004 L263.34,173 L270.928,173 L270.928,171.152 L265.538,171.152 L265.538,168.702 L270.382,168.702 L270.382,166.994 L265.538,166.994 L265.538,164.852 L270.816,164.852 L270.816,163.004 L263.34,163.004 Z M275.412,163.004 L275.412,173 L277.47,173 L277.47,166.308 L277.498,166.308 L281.656,173 L283.854,173 L283.854,163.004 L281.796,163.004 L281.796,169.71 L281.768,169.71 L277.596,163.004 L275.412,163.004 Z M290.998,164.852 L290.998,173 L293.196,173 L293.196,164.852 L296.192,164.852 L296.192,163.004 L288.002,163.004 L288.002,164.852 L290.998,164.852 Z M301.572,169.136 L302.874,165.468 L302.902,165.468 L304.162,169.136 L301.572,169.136 Z M301.782,163.004 L298.002,173 L300.214,173 L300.998,170.774 L304.736,170.774 L305.492,173 L307.774,173 L304.036,163.004 L301.782,163.004 Z M312.566,164.852 L312.566,173 L314.764,173 L314.764,164.852 L317.76,164.852 L317.76,163.004 L309.57,163.004 L309.57,164.852 L312.566,164.852 Z M321.908,163.004 L321.908,173 L324.106,173 L324.106,163.004 L321.908,163.004 Z M330.802,168.044 C330.802,167.605331 330.851,167.180669 330.949,166.77 C331.047,166.359331 331.203332,165.993002 331.418,165.671 C331.632668,165.348998 331.912665,165.092334 332.258,164.901 C332.603335,164.709666 333.023331,164.614 333.518,164.614 C334.012669,164.614 334.432665,164.709666 334.778,164.901 C335.123335,165.092334 335.403332,165.348998 335.618,165.671 C335.832668,165.993002 335.989,166.359331 336.087,166.77 C336.185,167.180669 336.234,167.605331 336.234,168.044 C336.234,168.464002 336.185,168.872331 336.087,169.269 C335.989,169.665669 335.832668,170.022665 335.618,170.34 C335.403332,170.657335 335.123335,170.911666 334.778,171.103 C334.432665,171.294334 334.012669,171.39 333.518,171.39 C333.023331,171.39 332.603335,171.294334 332.258,171.103 C331.912665,170.911666 331.632668,170.657335 331.418,170.34 C331.203332,170.022665 331.047,169.665669 330.949,169.269 C330.851,168.872331 330.802,168.464002 330.802,168.044 Z M328.604,168.044 C328.604,168.772004 328.715999,169.450997 328.94,170.081 C329.164001,170.711003 329.485998,171.259331 329.906,171.726 C330.326002,172.192669 330.841664,172.558999 331.453,172.825 C332.064336,173.091001 332.752663,173.224 333.518,173.224 C334.292671,173.224 334.98333,173.091001 335.59,172.825 C336.19667,172.558999 336.709998,172.192669 337.13,171.726 C337.550002,171.259331 337.871999,170.711003 338.096,170.081 C338.320001,169.450997 338.432,168.772004 338.432,168.044 C338.432,167.29733 338.320001,166.604337 338.096,165.965 C337.871999,165.325663 337.550002,164.768002 337.13,164.292 C336.709998,163.815998 336.19667,163.442668 335.59,163.172 C334.98333,162.901332 334.292671,162.766 333.518,162.766 C332.752663,162.766 332.064336,162.901332 331.453,163.172 C330.841664,163.442668 330.326002,163.815998 329.906,164.292 C329.485998,164.768002 329.164001,165.325663 328.94,165.965 C328.715999,166.604337 328.604,167.29733 328.604,168.044 Z M342.93,163.004 L342.93,173 L344.988,173 L344.988,166.308 L345.016,166.308 L349.174,173 L351.372,173 L351.372,163.004 L349.314,163.004 L349.314,169.71 L349.286,169.71 L345.114,163.004 L342.93,163.004 Z" id="writing-documentatio" fill="#FFFFFF" transform="translate(272.500000, 159.995000) rotate(-90.000000) translate(-272.500000, -159.995000) "></path>
        </g>
    </g>
</svg>