<?xml version="1.0" standalone="no"?>
<!DOCTYPE svg PUBLIC "-//W3C//DTD SVG 20010904//EN"
 "http://www.w3.org/TR/2001/REC-SVG-20010904/DTD/svg10.dtd">
<svg version="1.0" xmlns="http://www.w3.org/2000/svg"
 width="796.000000pt" height="796.000000pt" viewBox="0 0 796.000000 796.000000"
 preserveAspectRatio="xMidYMid meet">
<metadata>
Created by potrace 1.11, written by Peter Selinger 2001-2013
</metadata>
<g transform="translate(0.000000,796.000000) scale(0.100000,-0.100000)"
fill="#000000" stroke="none">
<path d="M4608 7918 c-10 -10 -18 -24 -18 -32 0 -8 -4 -16 -8 -18 -5 -1 -22
-28 -39 -58 -33 -59 -211 -368 -299 -517 -30 -50 -54 -96 -54 -102 0 -6 -4
-11 -10 -11 -5 0 -10 -7 -10 -15 0 -8 -5 -15 -12 -15 -6 0 -9 -3 -5 -6 3 -3
-10 -30 -29 -59 -19 -30 -34 -56 -34 -59 0 -3 -25 -46 -55 -96 -30 -50 -55
-92 -55 -94 0 -2 -18 -34 -40 -70 -22 -36 -40 -68 -40 -71 0 -3 -8 -18 -19
-33 -36 -51 -333 -573 -329 -577 2 -3 31 10 64 27 74 39 298 117 384 134 32 6
59 12 85 17 11 2 36 7 55 11 19 3 46 8 60 11 130 26 556 25 700 -1 14 -2 40
-7 59 -10 19 -3 64 -12 100 -20 36 -8 75 -17 86 -19 84 -19 318 -106 435 -162
125 -61 348 -201 427 -269 11 -11 40 -34 62 -53 88 -71 282 -275 330 -345 8
-12 18 -23 21 -26 13 -10 128 -186 166 -255 85 -153 184 -380 200 -462 2 -12
9 -35 15 -50 6 -16 10 -29 10 -30 -1 -2 -1 -4 0 -5 2 -7 8 -36 14 -67 3 -19 8
-37 10 -41 2 -4 7 -25 10 -46 2 -21 7 -49 9 -61 8 -38 18 -112 21 -148 1 -19
4 -38 7 -40 5 -5 73 104 92 145 3 8 15 29 26 45 11 17 23 37 27 45 4 8 45 80
91 160 135 231 142 244 155 270 6 14 14 27 18 30 3 3 17 25 29 50 12 25 25 47
29 50 3 3 13 19 21 35 8 17 26 48 39 70 13 22 38 65 54 95 17 30 33 57 36 60
4 3 15 23 26 45 11 22 25 47 31 55 7 8 24 38 39 65 14 28 34 64 44 80 10 17
53 91 95 165 42 74 81 142 86 150 6 8 13 22 17 30 4 8 9 17 12 20 3 3 14 20
24 38 9 17 25 47 35 65 9 17 20 34 25 35 16 8 4 40 -57 146 -35 62 -74 130
-86 151 -12 22 -26 45 -30 50 -9 11 -67 116 -84 152 -6 13 -14 23 -18 23 -5 0
-8 4 -8 9 0 4 -23 48 -51 97 -29 49 -65 114 -82 144 -17 30 -38 66 -49 79 -10
13 -18 27 -18 31 0 9 -104 189 -120 207 -6 7 -10 15 -10 18 1 3 -15 32 -34 64
-20 32 -36 61 -36 63 0 3 -31 58 -70 122 -38 65 -70 119 -70 120 0 2 -38 69
-85 150 -47 80 -85 150 -85 156 0 5 -4 10 -9 10 -5 0 -13 10 -17 23 -4 12 -9
24 -13 27 -3 3 -17 25 -30 50 -13 25 -28 49 -32 54 -5 6 -445 10 -1111 10
-1038 1 -1104 0 -1120 -16z"/>
<path d="M4340 6144 c-58 -6 -121 -14 -140 -18 -19 -3 -48 -8 -65 -11 -50 -9
-305 -80 -305 -85 0 -5 35 -27 89 -57 13 -7 50 -29 81 -48 32 -19 61 -35 65
-35 3 0 26 -13 50 -30 24 -16 48 -30 54 -30 6 0 11 -4 11 -10 0 -5 5 -10 11
-10 9 0 220 -119 299 -168 14 -9 27 -15 29 -13 2 1 7 -1 10 -6 3 -4 26 -19 51
-32 25 -13 52 -30 61 -37 8 -8 23 -14 32 -14 9 0 17 -3 17 -8 0 -4 21 -19 48
-32 26 -14 49 -28 50 -32 2 -5 8 -8 12 -8 5 0 74 -38 154 -85 80 -47 150 -85
156 -85 5 0 10 -4 10 -9 0 -5 8 -11 18 -14 19 -7 94 -50 133 -78 14 -10 28
-16 31 -13 3 2 11 -2 18 -11 7 -8 18 -15 25 -15 8 0 15 -3 17 -7 3 -8 66 -44
115 -67 13 -6 23 -14 23 -18 0 -5 4 -8 10 -8 5 0 50 -25 101 -55 50 -30 93
-55 94 -55 2 0 36 -19 77 -43 40 -24 80 -46 88 -50 8 -4 29 -16 45 -27 17 -10
41 -25 55 -33 83 -46 129 -73 162 -94 21 -12 42 -23 48 -23 5 0 10 -4 10 -10
0 -5 5 -10 11 -10 6 0 39 -17 73 -37 33 -21 63 -38 66 -38 3 0 16 -8 30 -17
27 -17 128 -76 200 -116 25 -14 62 -36 84 -49 l38 -25 -5 44 c-14 101 -60 256
-108 365 -11 23 -19 44 -19 47 0 8 -81 170 -110 221 -27 48 -115 180 -144 217
-12 14 -29 37 -39 50 -10 12 -28 36 -40 51 -25 33 -221 232 -258 262 -105 88
-262 195 -374 257 -48 27 -199 101 -240 118 -29 12 -119 45 -125 45 -3 0 -10
3 -16 7 -6 4 -29 12 -52 18 -23 5 -61 15 -84 21 -45 11 -68 16 -106 23 -12 3
-30 7 -40 10 -9 2 -37 7 -62 10 -25 3 -67 8 -95 12 -89 11 -327 10 -435 -2z"/>
<path d="M3579 5913 l-26 -16 85 -146 c175 -302 236 -408 265 -461 17 -30 34
-57 39 -58 4 -2 6 -8 2 -13 -3 -5 0 -9 5 -9 6 0 11 -4 11 -9 0 -5 38 -74 85
-155 47 -80 85 -150 85 -156 0 -5 4 -10 8 -10 5 0 14 -16 22 -35 8 -19 17 -35
22 -35 4 0 8 -4 8 -9 0 -4 86 -156 190 -336 105 -180 190 -331 190 -334 0 -3
9 -17 19 -30 l19 -24 1053 0 1054 0 2 29 c1 16 -1 34 -5 40 -6 9 -63 43 -267
159 -22 13 -102 60 -179 104 -76 45 -140 81 -141 81 -2 0 -49 27 -105 60 -56
33 -106 60 -111 60 -5 0 -9 5 -9 10 0 6 -4 10 -9 10 -5 0 -49 23 -98 51 -48
29 -113 65 -143 82 -30 16 -62 36 -71 43 -8 8 -18 14 -21 14 -4 0 -111 61
-238 135 -128 74 -236 135 -241 135 -5 0 -9 5 -9 10 0 6 -5 10 -10 10 -6 0
-65 32 -133 71 -67 40 -135 79 -152 89 -52 29 -349 201 -365 211 -21 12 -231
134 -283 163 -23 13 -144 82 -269 155 -125 72 -233 131 -240 131 -7 0 -25 -8
-39 -17z"/>
<path d="M1133 5912 c-18 -2 -33 -7 -33 -12 0 -6 -17 -38 -38 -72 -21 -35 -41
-70 -45 -78 -4 -8 -17 -31 -28 -50 -12 -19 -31 -53 -42 -75 -12 -22 -24 -42
-28 -45 -3 -3 -34 -56 -70 -119 -35 -63 -79 -139 -97 -170 -18 -31 -37 -65
-42 -76 -6 -11 -19 -33 -30 -50 -11 -16 -23 -37 -27 -45 -4 -8 -44 -80 -90
-158 -46 -79 -83 -148 -83 -153 0 -5 -4 -9 -10 -9 -5 0 -10 -4 -10 -9 0 -5
-45 -87 -100 -181 -55 -95 -100 -176 -100 -181 0 -5 -4 -9 -10 -9 -5 0 -10 -6
-10 -14 0 -7 -8 -24 -19 -37 -10 -13 -19 -27 -20 -32 0 -4 -26 -51 -57 -105
-31 -53 -64 -110 -73 -127 -9 -16 -18 -32 -21 -35 -3 -3 -15 -23 -27 -46 l-22
-40 84 -148 c47 -82 85 -152 85 -156 0 -5 4 -10 8 -12 7 -3 28 -38 100 -168
14 -25 33 -57 43 -72 11 -14 19 -33 19 -42 0 -9 4 -16 10 -16 5 0 17 -15 25
-32 17 -37 36 -71 113 -201 29 -48 52 -90 52 -92 0 -3 16 -29 35 -59 19 -30
35 -58 35 -61 0 -4 8 -19 18 -33 11 -15 32 -52 49 -82 17 -30 39 -71 50 -90
67 -117 84 -147 93 -160 5 -8 30 -51 55 -95 67 -119 106 -187 126 -220 18 -29
74 -128 94 -166 5 -11 14 -19 20 -20 28 -3 2111 -5 2117 -2 4 2 -38 39 -95 81
-134 101 -365 331 -436 435 -8 12 -17 24 -20 27 -3 3 -10 12 -16 21 -5 9 -31
47 -56 85 -90 137 -143 239 -219 424 -12 30 -23 59 -25 65 -1 5 -5 17 -8 25
-15 39 -36 109 -42 145 -4 22 -12 46 -18 53 -5 6 -7 12 -5 12 3 0 -3 39 -14
88 -32 149 -41 253 -40 467 0 168 4 246 16 315 3 19 8 51 11 70 9 68 53 253
72 300 3 8 8 23 9 33 14 70 134 336 211 465 41 70 172 261 198 288 5 6 34 39
64 73 103 119 196 205 367 340 6 5 24 16 40 24 l29 16 -30 1 c-81 3 -2064 5
-2092 2z"/>
<path d="M3357 5783 c-14 -16 -15 -197 -15 -1805 0 -1539 2 -1788 14 -1788 8
0 14 -4 14 -9 0 -5 6 -11 14 -14 14 -6 25 8 76 98 9 17 41 72 71 123 30 51 63
110 74 130 11 20 23 39 28 40 4 2 7 8 7 13 0 4 20 43 45 85 25 41 45 77 45 79
0 1 30 54 68 116 37 63 73 125 80 139 19 35 39 71 105 182 31 53 57 99 57 102
0 3 12 22 26 43 14 21 30 47 35 58 5 11 13 27 19 35 35 53 130 222 130 230 0
6 5 10 10 10 6 0 10 5 10 11 0 6 29 60 65 120 36 61 65 113 65 115 0 2 12 22
26 44 l26 39 -38 68 c-20 37 -69 122 -107 188 -39 66 -77 134 -85 150 -9 17
-18 32 -22 35 -4 3 -9 10 -11 15 -11 27 -124 220 -131 223 -4 2 -8 9 -8 16 0
8 -9 25 -21 40 -11 14 -17 26 -13 26 4 0 1 8 -7 18 -8 9 -20 28 -28 42 -8 14
-54 94 -103 178 -48 83 -88 157 -88 162 0 6 -4 10 -9 10 -5 0 -15 15 -22 33
-7 17 -17 37 -21 42 -16 19 -158 268 -158 277 0 4 -5 8 -12 8 -6 0 -9 3 -5 6
3 3 -9 29 -27 57 -18 29 -36 59 -39 67 -4 8 -18 33 -32 55 -14 22 -28 47 -32
55 -10 24 -35 50 -48 50 -7 0 -19 -8 -28 -17z"/>
<path d="M3068 5530 c-57 -55 -125 -128 -153 -162 -27 -35 -52 -65 -55 -68
-15 -14 -104 -145 -151 -225 -57 -94 -169 -317 -169 -335 0 -6 -4 -18 -10 -28
-14 -23 -66 -188 -76 -237 -5 -22 -9 -42 -9 -45 -1 -3 -5 -16 -8 -30 -52 -203
-53 -589 -1 -820 3 -14 8 -38 10 -55 21 -117 120 -389 195 -532 43 -82 109
-195 118 -203 3 -3 22 -27 41 -55 62 -90 184 -230 262 -303 28 -26 58 -54 67
-62 9 -9 23 -21 32 -28 15 -11 17 116 17 1638 0 907 -2 1650 -4 1650 -2 0 -49
-45 -106 -100z"/>
<path d="M4596 3858 c-21 -41 -63 -115 -84 -148 -9 -14 -23 -38 -32 -55 -9
-16 -96 -169 -193 -338 -97 -169 -177 -312 -177 -317 0 -4 -3 -10 -8 -12 -9
-4 -142 -237 -142 -249 0 -5 -4 -9 -9 -9 -5 0 -11 -8 -14 -17 -6 -19 -48 -93
-91 -161 -14 -23 -26 -44 -26 -46 0 -3 -22 -43 -50 -90 -27 -47 -50 -88 -50
-92 0 -4 -6 -15 -14 -23 -7 -9 -27 -41 -43 -71 -16 -30 -44 -78 -61 -106 -18
-28 -32 -55 -32 -60 0 -6 12 -17 28 -26 25 -14 29 -14 57 3 17 10 39 23 50 29
11 5 43 23 70 40 28 16 57 33 65 37 8 3 34 19 58 35 23 16 42 26 42 22 0 -4 8
0 18 8 9 8 91 57 182 109 91 51 167 96 170 99 3 4 25 16 50 29 25 12 59 31 75
42 17 10 36 22 44 26 8 3 91 51 185 106 94 55 189 110 211 122 22 13 107 62
189 109 82 47 153 86 158 86 4 0 8 4 8 8 0 4 12 13 28 19 15 7 45 23 67 36 22
14 99 59 171 100 72 42 146 85 165 96 19 12 41 24 49 28 8 4 42 23 76 44 33
20 70 40 82 43 12 4 22 12 22 17 0 5 4 9 10 9 5 0 39 18 75 40 36 22 67 40 70
40 3 0 34 18 70 40 36 22 70 40 75 40 6 0 10 4 10 8 0 4 12 13 28 20 15 6 41
20 57 30 17 10 50 30 75 44 80 45 294 170 320 186 14 9 28 15 33 14 4 -1 7 11
7 27 0 16 3 36 6 45 6 15 -91 16 -1054 16 l-1060 0 -16 -32z"/>
<path d="M6879 3785 c0 -17 -2 -39 -5 -50 -2 -11 -6 -33 -8 -50 -11 -86 -19
-127 -37 -205 -10 -47 -21 -96 -24 -110 -10 -44 -56 -183 -76 -227 -10 -24
-19 -46 -19 -51 0 -5 -11 -32 -25 -60 -14 -29 -25 -56 -25 -62 0 -5 -4 -10 -8
-10 -5 0 -9 -6 -9 -12 0 -7 -14 -37 -32 -66 -17 -29 -31 -55 -31 -58 0 -8
-144 -225 -171 -258 -13 -16 -46 -56 -74 -90 -122 -150 -321 -328 -495 -442
-97 -63 -300 -177 -300 -167 0 3 -6 1 -12 -5 -25 -19 -252 -107 -306 -117 -9
-2 -17 -4 -17 -5 0 -1 -7 -3 -15 -5 -8 -1 -44 -11 -80 -20 -69 -18 -76 -20
-136 -30 -61 -11 -85 -14 -144 -20 -30 -3 -66 -8 -80 -11 -30 -5 -319 -6 -375
0 -22 2 -65 7 -95 11 -30 4 -70 9 -87 11 -18 2 -54 9 -80 15 -62 14 -82 18
-117 25 -16 2 -34 8 -39 11 -6 3 -22 7 -36 9 -14 1 -26 3 -26 3 0 2 -187 68
-210 74 -5 2 -27 11 -49 20 -21 9 -42 17 -47 17 -8 0 -13 15 -10 33 2 14 -27
7 -33 -8 -3 -8 -2 -15 2 -15 4 0 8 -12 7 -27 0 -21 4 -27 18 -25 9 2 17 -2 17
-9 0 -6 8 -23 18 -37 11 -15 32 -52 49 -82 16 -30 81 -143 143 -250 62 -107
120 -208 130 -225 9 -16 58 -101 109 -188 50 -87 91 -162 91 -168 0 -5 5 -9
10 -9 6 0 10 -4 10 -9 0 -5 22 -48 50 -96 27 -48 50 -91 50 -96 0 -5 4 -9 8
-9 4 0 20 -25 36 -55 15 -30 32 -57 37 -60 5 -4 9 -15 9 -26 0 -10 4 -19 8
-19 5 0 16 -15 25 -32 9 -18 30 -55 46 -83 37 -62 52 -88 83 -145 36 -66 50
-89 80 -134 l26 -41 1114 0 1113 0 43 73 c23 41 42 76 42 79 0 2 12 20 26 39
15 19 24 34 20 34 -3 0 9 24 27 53 19 28 37 59 41 67 4 8 12 24 19 35 7 11 39
67 72 125 33 58 65 111 72 118 7 7 13 17 13 22 0 5 30 60 66 122 37 62 78 133
92 158 14 25 33 59 43 75 10 17 30 53 44 80 15 28 33 57 41 66 8 8 14 18 14
22 0 5 74 137 110 197 5 8 22 38 38 65 83 147 207 361 212 365 3 3 13 21 22
40 9 19 25 47 35 62 17 27 17 29 -2 65 -11 21 -22 40 -25 43 -3 3 -11 16 -17
30 -18 38 -73 132 -94 161 -10 14 -16 28 -13 31 2 3 -2 11 -11 18 -8 7 -15 19
-15 26 0 8 -4 14 -10 14 -5 0 -10 4 -10 9 0 5 -32 65 -71 133 -81 140 -127
223 -143 255 -6 13 -14 23 -18 23 -5 0 -8 4 -8 9 0 12 -93 175 -102 179 -4 2
-8 8 -8 14 0 8 -96 181 -139 248 -8 14 -16 27 -16 30 -1 6 -80 143 -111 192
-13 21 -24 40 -24 42 0 5 -145 259 -168 296 -9 14 -17 28 -17 32 0 4 -6 13
-12 20 -10 10 -13 6 -14 -17z"/>
<path d="M6670 3590 c-14 -10 -46 -29 -70 -42 -25 -13 -63 -35 -85 -48 -22
-14 -42 -23 -44 -22 -2 2 -7 0 -10 -5 -3 -5 -53 -36 -111 -68 -57 -33 -125
-72 -150 -86 -206 -119 -550 -316 -665 -382 -77 -44 -152 -88 -167 -99 -16
-11 -28 -16 -28 -12 0 4 -8 0 -17 -8 -10 -9 -39 -27 -65 -42 -104 -57 -144
-80 -178 -101 -19 -12 -56 -33 -81 -47 -87 -49 -94 -53 -101 -63 -4 -5 -8 -7
-8 -3 0 4 -25 -8 -55 -27 -30 -19 -57 -35 -60 -35 -3 0 -24 -12 -48 -27 -23
-14 -67 -40 -97 -56 -30 -16 -62 -35 -70 -42 -8 -6 -40 -24 -70 -40 -30 -15
-57 -31 -60 -34 -3 -4 -21 -15 -40 -24 -19 -10 -60 -32 -90 -50 -31 -17 -106
-61 -168 -97 -62 -36 -120 -70 -130 -75 -9 -6 -52 -30 -96 -54 -85 -47 -85
-49 -5 -74 48 -16 198 -54 239 -61 14 -2 36 -7 50 -10 174 -39 560 -40 750 -1
14 3 36 8 50 10 91 17 225 53 305 81 39 14 77 27 86 29 9 2 25 8 35 13 11 5
62 31 114 56 52 26 109 54 125 64 47 27 212 139 225 152 3 3 44 37 91 77 110
93 212 200 312 328 31 39 137 195 137 201 0 2 11 22 25 44 85 135 168 339 226
558 35 132 35 149 -1 122z"/>
</g>
</svg>
